<svg width="152" height="116" viewBox="0 0 152 116" fill="none" xmlns="http://www.w3.org/2000/svg">
<path d="M136.93 48.9325C136.16 48.9325 135.403 49.2422 134.858 49.7896C134.314 50.3336 134 51.0855 134 51.8581C134 52.6272 134.314 53.3814 134.858 53.9254C135.403 54.4705 136.16 54.7836 136.93 54.7836C137.7 54.7836 138.456 54.4705 139.001 53.9254C139.546 53.3814 139.859 52.6272 139.859 51.8581C139.859 51.0855 139.546 50.3336 139.001 49.7896C138.456 49.2422 137.7 48.9325 136.93 48.9325Z" fill="black" stroke="white" stroke-width="2"/>
<path d="M148.07 97.4466H140.453V65.3145C140.453 63.6986 139.142 62.3889 137.523 62.3889C135.905 62.3889 134.594 63.6986 134.594 65.3145V97.4466H119.359V6.85114H134.594V38.9832C134.594 40.5992 135.905 41.9088 137.523 41.9088C139.142 41.9088 140.453 40.5992 140.453 38.9832V3.92557C140.453 2.30965 139.142 1 137.523 1H116.43C114.811 1 113.5 2.30965 113.5 3.92557V97.4466H106.469V25.9656C106.469 24.3497 105.157 23.04 103.539 23.04H82.4453C80.8271 23.04 79.5156 24.3497 79.5156 25.9656V97.4466H72.3871V60.877C72.3871 59.2611 71.0756 57.9514 69.4574 57.9514H48.3637C46.7455 57.9514 45.434 59.2611 45.434 60.877V97.4466H38.5V79.3081C38.5 77.6922 37.1885 76.3825 35.5703 76.3825H14.4766C12.8584 76.3825 11.5469 77.6922 11.5469 79.3081V97.4466H3.92969C2.31149 97.4466 1 98.7562 1 100.372V112.074C1 113.69 2.31149 115 3.92969 115H148.07C149.689 115 151 113.69 151 112.074V100.372C151 98.7562 149.689 97.4466 148.07 97.4466ZM85.375 28.8912H100.609V97.4466H85.375V28.8912ZM51.2934 63.8026H66.5277V97.4466H51.2934V63.8026ZM17.4062 82.2336H32.6406V97.4466H17.4062V82.2336ZM145.141 109.149H6.85938V103.298H145.141V109.149Z" fill="black" stroke="white" stroke-width="2"/>
</svg>
