<svg width="88" height="150" viewBox="0 0 88 150" fill="none" xmlns="http://www.w3.org/2000/svg">
<path d="M88 14.2857C88 6.39596 81.6185 0 73.7465 0H14.2535C6.38155 0 0 6.39596 0 14.2857V135.714C0 143.604 6.38155 150 14.2535 150H73.7465C81.6185 150 88 143.604 88 135.714V14.2857ZM84.2817 117.081H3.71831V28.2609H84.2817V117.081ZM73.7908 146.584H14.2092C8.39997 146.584 3.71831 141.732 3.71831 135.91V120.807H84.2817V135.91C84.2817 141.732 79.6 146.584 73.7908 146.584ZM84.2817 24.5342H3.71831V14.4003C3.71831 8.57826 8.39997 3.72671 14.2092 3.72671H73.7908C79.6 3.72671 84.2817 8.57826 84.2817 14.4003V24.5342Z" fill="black"/>
<path d="M54.546 11.4907H33.4539C32.427 11.4907 31.5947 12.3249 31.5947 13.3541C31.5947 14.3833 32.427 15.2174 33.4539 15.2174H54.546C55.5729 15.2174 56.4052 14.3833 56.4052 13.3541C56.4052 12.3249 55.5729 11.4907 54.546 11.4907Z" fill="black"/>
<path d="M43.9999 125.329C39.3889 125.329 35.6508 129.076 35.6508 133.697C35.6508 138.319 39.3889 142.065 43.9999 142.065C48.6109 142.065 52.3491 138.319 52.3491 133.697C52.3438 129.078 48.6088 125.335 43.9999 125.329ZM43.9999 138.339C41.4423 138.339 39.3691 136.261 39.3691 133.697C39.3691 131.134 41.4423 129.056 43.9999 129.056C46.5575 129.056 48.6308 131.134 48.6308 133.697C48.628 136.259 46.5563 138.336 43.9999 138.339Z" fill="black"/>
<path d="M13.0317 76.6562L27.7172 87.786C28.5318 88.4124 29.699 88.2584 30.324 87.4419C30.949 86.6254 30.7953 85.4556 29.9807 84.8292C29.9739 84.8239 29.9671 84.8186 29.9603 84.8136L17.2359 75.1702L29.9599 65.5279C30.7832 64.913 30.9534 63.7456 30.3398 62.9205C29.7263 62.0953 28.5616 61.9248 27.7383 62.5397C27.7311 62.545 27.7243 62.5503 27.7172 62.5556L13.0317 73.6851C12.2128 74.3059 12.051 75.4745 12.6704 76.2953C12.7736 76.4323 12.8954 76.554 13.0317 76.6574V76.6562Z" fill="black"/>
<path d="M56.6785 87.4223C57.2976 88.2422 58.4627 88.4043 59.2813 87.7848L73.9668 76.655C74.7857 76.0341 74.9475 74.8655 74.3281 74.0447C74.2249 73.9077 74.1031 73.786 73.9668 73.6826L59.2813 62.5531C58.4617 61.9329 57.2954 62.0959 56.6766 62.9174C56.0578 63.7388 56.2205 64.9077 57.0401 65.5279L69.7645 75.1714L57.0401 84.8137C56.2221 85.4341 56.0603 86.6018 56.6785 87.4223Z" fill="black"/>
<path d="M41.2156 93.7006C42.2307 93.8547 43.1783 93.1544 43.332 92.137L48.3445 58.9404C48.4985 57.923 47.8004 56.973 46.785 56.8183C45.7699 56.664 44.8221 57.3637 44.6681 58.3814L39.6555 91.5792C39.5018 92.5966 40.2002 93.5466 41.2153 93.7006H41.2156Z" fill="black"/>
</svg>
