<svg width="158" height="137" viewBox="0 0 158 137" fill="none" xmlns="http://www.w3.org/2000/svg">
<path d="M133.483 125.383H13.6207C6.24075 125.383 0.25 119.377 0.25 111.977V13.6557C0.25 6.25523 6.24075 0.25 13.6207 0.25H128.371V5.21229H13.6207C8.98719 5.21229 5.19828 9.01187 5.19828 13.6557V111.977C5.19828 116.621 8.98719 120.42 13.6207 120.42H133.483C138.116 120.42 141.905 116.621 141.905 111.977V13.6557C141.905 9.01187 138.116 5.21229 133.483 5.21229H131.009V0.25H133.483C140.863 0.25 146.853 6.25523 146.853 13.6557V111.977C146.853 119.377 140.863 125.383 133.483 125.383Z" fill="black" stroke="white" stroke-width="0.5"/>
<path d="M11.1466 23.0614V18.0991H92.3707V23.0614H11.1466Z" fill="black" stroke="white" stroke-width="0.5"/>
<path d="M49.0345 68.5286H49.2845V68.2786V40.9672V40.7172H49.0345H16.3448H16.0948V40.9672V68.2786V68.5286H16.3448H49.0345ZM11.1465 38.236C11.1465 36.8714 12.2611 35.7549 13.6207 35.7549H51.7586C53.1182 35.7549 54.2328 36.8714 54.2328 38.236V71.0098C54.2328 72.3744 53.1182 73.4909 51.7586 73.4909H13.6207C12.2611 73.4909 11.1465 72.3744 11.1465 71.0098V38.236Z" fill="black" stroke="white" stroke-width="0.5"/>
<path d="M74.25 40.4386V35.9386H93.75V40.4386H74.25Z" fill="black" stroke="white" stroke-width="0.5"/>
<path d="M74.25 77.4386V72.9386H93.75V77.4386H74.25Z" fill="black" stroke="white" stroke-width="0.5"/>
<path d="M103.25 41.4386V35.9386H127.75V41.4386H103.25Z" fill="black" stroke="white" stroke-width="0.5"/>
<path d="M103.25 78.4386V72.9386H127.75V78.4386H103.25Z" fill="black" stroke="white" stroke-width="0.5"/>
<path d="M74.25 59.4386V54.9386H127.75V59.4386H74.25Z" fill="black" stroke="white" stroke-width="0.5"/>
<path d="M74.25 96.4386V91.9386H127.75V96.4386H74.25Z" fill="black" stroke="white" stroke-width="0.5"/>
<path d="M136.207 136.307H16.5948V131.345H136.207C145.362 131.345 152.802 123.886 152.802 114.708V16.6368H157.75V114.708C157.75 126.615 148.082 136.307 136.207 136.307Z" fill="black" stroke="white" stroke-width="0.5"/>
</svg>
