<svg width="144" height="154" viewBox="0 0 144 154" fill="none" xmlns="http://www.w3.org/2000/svg">
<path d="M105.879 89.3656C113.629 70.6562 104.744 49.2067 86.0349 41.4569C67.3255 33.7071 45.876 42.5915 38.1262 61.3009C30.3764 80.0103 39.2608 101.46 57.9702 109.21C76.6796 116.959 98.129 108.075 105.879 89.3656Z" stroke="black" stroke-width="3" stroke-miterlimit="10"/>
<path d="M82 12C82 17.5333 77.5333 22 72 22C66.4667 22 62 17.5333 62 12C62 6.46667 66.4667 2 72 2C77.5333 2 82 6.46667 82 12Z" stroke="black" stroke-width="3" stroke-miterlimit="10"/>
<path d="M72 152C77.5228 152 82 147.523 82 142C82 136.477 77.5228 132 72 132C66.4772 132 62 136.477 62 142C62 147.523 66.4772 152 72 152Z" stroke="black" stroke-width="3" stroke-miterlimit="10"/>
<path d="M132 28.6666C132 34.2 127.533 38.6666 122 38.6666C116.467 38.6666 112 34.2 112 28.6666C112 23.1333 116.467 18.6666 122 18.6666C127.533 18.6666 132 23.1333 132 28.6666Z" stroke="black" stroke-width="3" stroke-miterlimit="10"/>
<path d="M142 75.3333C142 80.8666 137.533 85.3333 132 85.3333C126.467 85.3333 122 80.8666 122 75.3333C122 69.7999 126.467 65.3333 132 65.3333C137.533 65.3333 142 69.7999 142 75.3333Z" stroke="black" stroke-width="3" stroke-miterlimit="10"/>
<path d="M132 122C132 127.533 127.533 132 122 132C116.467 132 112 127.533 112 122C112 116.467 116.467 112 122 112C127.533 112 132 116.467 132 122Z" stroke="black" stroke-width="3" stroke-miterlimit="10"/>
<path d="M72 22V38.6667" stroke="black" stroke-width="3" stroke-miterlimit="10"/>
<path d="M72 112V132" stroke="black" stroke-width="3" stroke-miterlimit="10"/>
<path d="M115.333 35.3334L98.6667 52" stroke="black" stroke-width="3" stroke-miterlimit="10"/>
<path d="M115.333 115.333L98.6667 98.6666" stroke="black" stroke-width="3" stroke-miterlimit="10"/>
<path d="M108.667 75.3334H122" stroke="black" stroke-width="3" stroke-miterlimit="10"/>
<path d="M12 28.6666C12 34.2 16.4667 38.6666 22 38.6666C27.5333 38.6666 32 34.2 32 28.6666C32 23.1333 27.5333 18.6666 22 18.6666C16.4667 18.6666 12 23.1333 12 28.6666Z" stroke="black" stroke-width="3" stroke-miterlimit="10"/>
<path d="M2 75.3333C2 80.8666 6.46667 85.3333 12 85.3333C17.5333 85.3333 22 80.8666 22 75.3333C22 69.7999 17.5333 65.3333 12 65.3333C6.46667 65.3333 2 69.7999 2 75.3333Z" stroke="black" stroke-width="3" stroke-miterlimit="10"/>
<path d="M12 122C12 127.533 16.4667 132 22 132C27.5333 132 32 127.533 32 122C32 116.467 27.5333 112 22 112C16.4667 112 12 116.467 12 122Z" stroke="black" stroke-width="3" stroke-miterlimit="10"/>
<path d="M28.6667 35.3334L45.3334 52" stroke="black" stroke-width="3" stroke-miterlimit="10"/>
<path d="M28.6667 115.333L45.3334 98.6666" stroke="black" stroke-width="3" stroke-miterlimit="10"/>
<path d="M35.3333 75.3334H22" stroke="black" stroke-width="3" stroke-miterlimit="10"/>
<path d="M88.6667 95.3334V88.8334C88.6667 84.7001 79.5 78.6667 72 78.6667C64.5 78.6667 55.3334 84.7001 55.3334 88.8334V95.3334" stroke="black" stroke-width="3" stroke-miterlimit="10"/>
<path d="M72 55.3334C66.8333 55.3334 62 59.5 62 64.6667V69.3334C62 74.5 66.8333 78.6667 72 78.6667C77.1667 78.6667 82 74.5 82 69.3334V64.6667C82 59.5 77.1667 55.3334 72 55.3334Z" stroke="black" stroke-width="3" stroke-miterlimit="10"/>
</svg>
