<svg width="156" height="156" viewBox="0 0 156 156" fill="none" xmlns="http://www.w3.org/2000/svg">
<path d="M140.024 75.4197L140.034 75.6593H140.273H153.403C154.699 75.6593 155.737 76.7073 155.737 78.0065C155.737 79.3041 154.687 80.3537 153.39 80.3537H140.26H140.021L140.011 80.5933C138.672 112.791 112.778 138.685 80.5803 140.024L80.3406 140.034V140.273V153.403C80.3406 154.7 79.291 155.75 77.9935 155.75C76.6959 155.75 75.6463 154.7 75.6463 153.403V140.273V140.034L75.4067 140.024C43.209 138.685 17.3152 112.791 15.9764 80.5933L15.9664 80.3537H15.7266H2.59717C1.29962 80.3537 0.25 79.3041 0.25 78.0065C0.25 76.709 1.29962 75.6593 2.59717 75.6593H15.7266H15.9664L15.9764 75.4197C17.3152 43.209 43.209 17.3152 75.4197 15.9764L75.6593 15.9664V15.7266V2.59717C75.6593 1.29962 76.709 0.25 78.0065 0.25C79.3041 0.25 80.3537 1.29962 80.3537 2.59717V15.7266V15.9664L80.5933 15.9764C112.791 17.3152 138.685 43.209 140.024 75.4197ZM80.625 47.5441L80.3537 47.5209V47.7932V62.8672V63.0776L80.561 63.1135C86.8523 64.2049 91.808 69.1483 92.8864 75.4385L92.922 75.6463H93.1328H108.207H108.479L108.456 75.375C107.193 60.5973 95.4026 48.8074 80.625 47.5441ZM108.456 80.625L108.479 80.3537H108.207H93.1328H92.9224L92.8864 80.561C91.7951 86.8523 86.8517 91.808 80.5614 92.8864L80.3537 92.922V93.1328V108.207V108.479L80.625 108.456C95.4026 107.193 107.193 95.4026 108.456 80.625ZM75.6593 20.934V20.6724L75.3981 20.6842C45.7995 22.0213 22.0212 45.7994 20.6973 75.3851L20.6856 75.6463H20.947H42.6119H42.8445L42.8612 75.4143C44.1182 58.0237 58.0365 44.1182 75.4276 42.8482L75.6593 42.8313V42.5988V20.934ZM75.6593 47.7932V47.5209L75.3881 47.5441C60.6105 48.8074 48.8074 60.6103 47.5441 75.375L47.5209 75.6463H47.7932H62.8803H63.0906L63.1266 75.439C64.218 69.1477 69.1614 64.192 75.4516 63.1136L75.6593 63.078V62.8672V47.7932ZM75.4093 135.329L75.415 135.079H75.6463V113.414V113.182L75.4145 113.165C58.0237 111.895 44.1182 97.9765 42.8482 80.5855L42.8313 80.3537H42.5988H20.934H20.6723L20.6843 80.6151C22.0306 110.13 45.6777 133.857 75.1463 135.317V135.329H75.3963H75.4093ZM75.3881 108.456L75.6593 108.479V108.207V93.1328V92.9224L75.4521 92.8864C69.1607 91.7951 64.205 86.8517 63.1267 80.5614L63.0911 80.3537H62.8803H47.8062H47.534L47.5571 80.625C48.8204 95.4026 60.6104 107.193 75.3881 108.456ZM88.4494 77.994V77.9935C88.4494 72.2302 83.7564 67.5506 78.0065 67.5506C72.2432 67.5506 67.5636 72.2436 67.5636 77.9935C67.5636 83.7568 72.2567 88.4364 78.0065 88.4364C83.7569 88.4364 88.4361 83.7564 88.4494 77.994ZM80.3537 135.079V135.341L80.6151 135.329C110.201 133.979 133.979 110.201 135.316 80.615L135.328 80.3537H135.066H113.401H113.169L113.152 80.5855C111.882 97.9895 97.9763 111.895 80.5855 113.165L80.3537 113.182V113.414V135.079ZM80.3537 42.6119V42.8445L80.5857 42.8612C97.9732 44.118 111.877 58.0317 113.151 75.4185V75.4224V75.6724H113.401H135.079H135.341L135.329 75.411C133.979 45.8125 110.201 22.0344 80.615 20.6973L80.3537 20.6855V20.947V42.6119Z" fill="black" stroke="white" stroke-width="0.5"/>
</svg>
