<svg width="150" height="115" viewBox="0 0 150 115" fill="none" xmlns="http://www.w3.org/2000/svg">
<path d="M139.107 14.4152C139.615 13.9889 139.933 13.3784 139.991 12.7178C140.048 12.0571 139.841 11.4006 139.415 10.8928C138.989 10.3845 138.378 10.067 137.718 10.0093C137.057 9.95154 136.4 10.1587 135.893 10.5852M139.107 14.4152L135.893 10.5852M139.107 14.4152L81.4327 62.8623L139.107 14.4152ZM135.893 10.5852L136.053 10.7767L78.3783 59.2263M135.893 10.5852L136.053 10.7766C136.51 10.3928 137.101 10.2064 137.696 10.2583C138.29 10.3103 138.84 10.5961 139.223 11.0534L139.223 11.0537C139.607 11.5105 139.794 12.1014 139.742 12.696C139.69 13.2906 139.404 13.8401 138.947 14.2237L138.947 14.2238L81.2719 62.6709L81.2717 62.6711C77.6473 65.7225 72.3527 65.7225 68.7286 62.6711L68.7284 62.6709L11.0534 14.2235L11.0533 14.2234C10.4377 13.7067 10.1444 12.9006 10.2842 12.1088C10.4239 11.3169 10.9756 10.6599 11.731 10.3851C12.4863 10.1104 13.3311 10.2596 13.9468 10.7764C13.9468 10.7764 13.9469 10.7764 13.9469 10.7764L71.6215 59.2263H78.3783M78.3783 59.2263C78.3782 59.2263 78.3782 59.2264 78.3782 59.2264C76.4252 60.8681 73.5746 60.8681 71.6215 59.2264L78.3783 59.2263ZM45.8551 63.4656L45.8552 63.4657L45.8589 63.4614C46.4021 62.8523 47.2322 62.585 48.0288 62.7627C48.8253 62.9404 49.4629 63.5355 49.6954 64.3176C49.928 65.0996 49.7186 65.9465 49.1485 66.5302L49.1447 66.5343L14.1446 104.034L14.1445 104.034L14.1408 104.039C13.5976 104.648 12.7675 104.915 11.971 104.737C11.1747 104.56 10.5368 103.965 10.3043 103.182L10.0646 103.254L10.3043 103.182C10.0717 102.4 10.2811 101.553 10.8511 100.97L10.8512 100.97L10.855 100.966L45.8551 63.4656ZM104.141 63.4614L104.145 63.4656L139.141 100.961C139.142 100.962 139.142 100.963 139.143 100.963C139.955 101.876 139.89 103.27 138.996 104.104C138.103 104.937 136.708 104.905 135.854 104.032C135.853 104.032 135.852 104.031 135.852 104.03L100.855 66.5343L100.855 66.5343L100.851 66.5302C100.281 65.9465 100.072 65.0998 100.305 64.3176C100.537 63.5355 101.175 62.9404 101.971 62.7627C102.768 62.5849 103.598 62.8523 104.141 63.4614L104.141 63.4614ZM7.5 0.25H142.5C146.504 0.25 149.75 3.49607 149.75 7.5V107.5C149.75 111.504 146.504 114.75 142.5 114.75H7.5C3.49579 114.75 0.25 111.504 0.25 107.5V7.5C0.25 3.49579 3.49607 0.25 7.5 0.25ZM142.5 110.25C144.019 110.25 145.25 109.019 145.25 107.5V7.5C145.25 5.98117 144.019 4.7501 142.5 4.7501H7.5C5.98117 4.7501 4.7501 5.98117 4.7501 7.5V107.5C4.7501 109.019 5.98117 110.25 7.5 110.25H142.5Z" fill="black" stroke="white" stroke-width="0.5"/>
</svg>
