<svg width="114" height="158" viewBox="0 0 114 158" fill="none" xmlns="http://www.w3.org/2000/svg">
<path d="M56.8953 154C58.7806 154 60.5613 153.143 61.7135 151.669C63.6687 149.167 110 90.2774 110 56.0338C110 27.3432 86.2233 4 57 4C27.7767 4 4 27.3432 4 56.0338C4 90.2774 50.087 149.167 52.0771 151.669C53.2293 153.143 55.0099 154 56.8953 154ZM97.78 56.0338C97.78 80.1997 68.6614 122.019 56.9302 137.924C45.2339 122.019 16.2549 80.1997 16.2549 56.0338C16.2549 33.9589 34.5501 15.9973 57.0349 15.9973C79.4848 15.9973 97.78 33.9589 97.78 56.0338Z" fill="black" stroke="white" stroke-width="8"/>
<path d="M56.8254 85.2043C73.0955 85.2043 86.328 72.213 86.328 56.2395C86.328 40.266 73.0955 27.2747 56.8254 27.2747C40.5553 27.2747 27.3228 40.266 27.3228 56.2395C27.3228 72.213 40.5553 85.2043 56.8254 85.2043ZM56.8254 39.2719C66.357 39.2719 74.108 46.8816 74.108 56.2395C74.108 65.5973 66.357 73.207 56.8254 73.207C47.2938 73.207 39.5428 65.5973 39.5428 56.2395C39.5079 46.8816 47.2938 39.2719 56.8254 39.2719Z" fill="black" stroke="white" stroke-width="8"/>
</svg>
