<svg id="Layer_1" data-name="Layer 1" xmlns="http://www.w3.org/2000/svg" viewBox="0 0 336.74 141"><defs><style>.cls-1{fill:#ffc200;}.cls-2{fill:#ffed00;}</style></defs><title>logoaass</title><path d="M112.19,206.13c-3.55-4-8.87-6.29-15.17-6.29-12.76,0-21.33,8.79-21.33,21.89s8.54,21.89,21.25,21.89A20.45,20.45,0,0,0,112.19,237V243h6.56v-59.1h-6.56Zm-.08,15.52c0,9.08-6.14,15.42-14.93,15.42-9.07,0-14.94-6-14.94-15.34,0-11.37,7.72-15.42,14.94-15.42C105.83,206.31,112.11,212.76,112.11,221.65Z" transform="translate(-30.05 -127.93)"/><path d="M130.86,184.36a4.49,4.49,0,1,0,4.49,4.49A4.39,4.39,0,0,0,130.86,184.36Z" transform="translate(-30.05 -127.93)"/><rect x="97.37" y="72.4" width="6.63" height="42.66"/><path d="M172,237.29a20.28,20.28,0,0,0,9-16.77c0-5.5-1.43-9.84-4.48-13.54l4-4.65-4.6-4-4,4.64a21.74,21.74,0,0,0-11-3.19c-11.8,0-20,8.54-20,20.76,0,11.94,8.43,20.6,20,20.6,6.64,0,13.73,2.78,13.73,10.59,0,9.89-10.51,10.66-13.73,10.66-6.56,0-13.56-2.8-13.56-10.66v-1.35h-6.64v1.35c0,10.3,8.12,17.22,20.2,17.22,12.51,0,20.28-6.6,20.28-17.22C181.12,245.29,177.9,240.25,172,237.29Zm-11.13-30.9c8.24,0,13.57,5.55,13.57,14.13,0,7.57-6.21,14-13.57,14-8.8,0-13.4-7-13.4-14C147.44,210.1,154.36,206.39,160.84,206.39Z" transform="translate(-30.05 -127.93)"/><rect x="156.36" y="72.4" width="6.63" height="42.66"/><path d="M189.85,184.36a4.49,4.49,0,1,0,4.49,4.49A4.39,4.39,0,0,0,189.85,184.36Z" transform="translate(-30.05 -127.93)"/><path d="M225,235.75a13.52,13.52,0,0,1-5.54,1.48c-4.54,0-6-1.91-6-7.84V206.47H227v-6H213.44V188.33l-6.55.68v11.47h-8.47v6h8.47v22.92c0,9.52,4.1,14.15,12.54,14.15a18.58,18.58,0,0,0,8.08-2.15l1.15-.55-2.42-5.7Z" transform="translate(-30.05 -127.93)"/><path d="M267.73,206.29A19.82,19.82,0,0,0,252.79,200c-12.29,0-21.57,9.34-21.57,21.73s9.28,21.89,21.57,21.89a19.77,19.77,0,0,0,14.94-6.45V243h6.63v-42.5h-6.63Zm-14.94.18c10.49,0,15.26,7.91,15.26,15.26s-4.77,15.34-15.26,15.34c-8.65,0-14.93-6.45-14.93-15.34S244.14,206.47,252.79,206.47Z" transform="translate(-30.05 -127.93)"/><rect x="252.34" y="55.96" width="6.63" height="59.1"/><polygon points="297.9 74.65 297.9 72.56 290.79 72.56 273.88 88.23 273.88 55.96 267.33 55.96 267.33 115.05 273.88 115.05 273.88 97.25 293.38 115.05 300.24 115.05 300.24 112.88 278.39 92.68 297.9 74.65"/><path d="M350.36,218.34l-1.57-.27c-5.76-1-10.52-2.15-10.52-6.09s5.19-5.75,10.34-5.75c4.62,0,8.21.64,11.85,3.85l1,.87,4.23-4.51-1-.92c-4-3.77-9.39-5.68-16-5.68-8.41,0-16.89,3.83-16.89,12.38,0,9.39,9.2,10.9,16.6,12.12,6.93,1.13,11.84,2.25,11.84,6.33,0,5.85-7.74,6.48-11.06,6.48-5.75,0-10.79-2.32-13.49-6.19l-.86-1.25-4.9,4.35.63,1c3.51,5.38,10.43,8.59,18.53,8.59,11.09,0,17.71-4.87,17.71-13C366.8,221.14,357.3,219.52,350.36,218.34Z" transform="translate(-30.05 -127.93)"/><path class="cls-1" d="M86.41,162.12H81.15a13.81,13.81,0,0,1-1.07,5.35L85,169.34A19.08,19.08,0,0,0,86.41,162.12Z" transform="translate(-30.05 -127.93)"/><path class="cls-1" d="M85,169.34l-4.91-1.87a13.7,13.7,0,0,1-3,4.48l3.71,3.71A19.08,19.08,0,0,0,85,169.34Z" transform="translate(-30.05 -127.93)"/><path class="cls-1" d="M72.7,174.92a14,14,0,0,1-3.2.93,2.65,2.65,0,0,0-2.26,2.6h0a2.63,2.63,0,0,0,3,2.6,18.89,18.89,0,0,0,4.83-1.46Z" transform="translate(-30.05 -127.93)"/><path class="cls-1" d="M80.78,175.66,77.07,172a14.1,14.1,0,0,1-4.37,3l2.4,4.67A19,19,0,0,0,80.78,175.66Z" transform="translate(-30.05 -127.93)"/><path class="cls-1" d="M77.34,152.56A14,14,0,0,1,80.18,157L85,155a19.26,19.26,0,0,0-4-6.18Z" transform="translate(-30.05 -127.93)"/><path class="cls-1" d="M85,155l-4.86,2a14,14,0,0,1,1,5.11h5.26A19,19,0,0,0,85,155Z" transform="translate(-30.05 -127.93)"/><path class="cls-1" d="M72.15,149.11a14.07,14.07,0,0,1,5.19,3.45l3.71-3.71a19.27,19.27,0,0,0-6.64-4.49Z" transform="translate(-30.05 -127.93)"/><path class="cls-1" d="M70.27,143.2a2.63,2.63,0,0,0-3,2.6h0a2.66,2.66,0,0,0,2.26,2.6,14,14,0,0,1,2.65.71l2.26-4.75A18.68,18.68,0,0,0,70.27,143.2Z" transform="translate(-30.05 -127.93)"/><path class="cls-1" d="M70.9,153l-2.25,4.73a2.17,2.17,0,0,0,.44.19,5.72,5.72,0,0,1,2.48,1.67l3.71-3.72A11.07,11.07,0,0,0,70.9,153Z" transform="translate(-30.05 -127.93)"/><path class="cls-1" d="M70.62,152.85a2.61,2.61,0,0,0-3.38,2.51h0a2.63,2.63,0,0,0,1.41,2.31L70.9,153Z" transform="translate(-30.05 -127.93)"/><path class="cls-1" d="M71.57,159.54l.13.15a2.6,2.6,0,0,0,3,.76h0a2.62,2.62,0,0,0,1.05-4.08c-.15-.19-.31-.37-.48-.55Z" transform="translate(-30.05 -127.93)"/><path class="cls-1" d="M75,169.75,71.31,166A5.67,5.67,0,0,1,69,167.47v0l2.41,4.69A11,11,0,0,0,75,169.75Z" transform="translate(-30.05 -127.93)"/><path class="cls-1" d="M69,167.49a2.65,2.65,0,0,0-1.71,2.44h0a2.62,2.62,0,0,0,3.38,2.52l.74-.28Z" transform="translate(-30.05 -127.93)"/><path class="cls-1" d="M74.38,165.15h0a2.57,2.57,0,0,0-2.84.65,1.75,1.75,0,0,1-.23.24L75,169.75c.14-.14.28-.28.41-.43A2.61,2.61,0,0,0,74.38,165.15Z" transform="translate(-30.05 -127.93)"/><path class="cls-1" d="M69.68,193.31a2.64,2.64,0,0,0-2.44,2.62h0a2.64,2.64,0,0,0,2.86,2.62,35,35,0,0,0,12.23-3.32l-2.41-4.67A29.59,29.59,0,0,1,69.68,193.31Z" transform="translate(-30.05 -127.93)"/><path class="cls-1" d="M86.43,186.36a30.2,30.2,0,0,1-6.51,4.2l2.41,4.67a35.67,35.67,0,0,0,7.54-4.91,2.62,2.62,0,0,0,.13-3.84h0A2.62,2.62,0,0,0,86.43,186.36Z" transform="translate(-30.05 -127.93)"/><path class="cls-1" d="M92.2,138.34l-3.72,3.71a29.71,29.71,0,0,1,6.3,9.63l4.86-2A35.08,35.08,0,0,0,92.2,138.34Z" transform="translate(-30.05 -127.93)"/><path class="cls-1" d="M102.18,162.76H96.93a29.51,29.51,0,0,1-1.3,8.66,2.62,2.62,0,0,0,1.59,3.2h0a2.64,2.64,0,0,0,3.46-1.72A34.65,34.65,0,0,0,102.18,162.76Z" transform="translate(-30.05 -127.93)"/><path class="cls-1" d="M94.78,151.68a29.59,29.59,0,0,1,2.15,11.08h5.25a34.57,34.57,0,0,0-2.54-13.06Z" transform="translate(-30.05 -127.93)"/><path class="cls-1" d="M92.2,138.34a35.13,35.13,0,0,0-11-7.61l-2.26,4.75a29.73,29.73,0,0,1,9.55,6.57Z" transform="translate(-30.05 -127.93)"/><path class="cls-1" d="M70.1,127.93a2.64,2.64,0,0,0-2.86,2.62h0a2.64,2.64,0,0,0,2.44,2.62,29.52,29.52,0,0,1,9.25,2.31l2.26-4.75A34.93,34.93,0,0,0,70.1,127.93Z" transform="translate(-30.05 -127.93)"/><path class="cls-1" d="M92.47,172.82,87.56,171a21.8,21.8,0,0,1-4.83,7.29L86.44,182A27.32,27.32,0,0,0,92.47,172.82Z" transform="translate(-30.05 -127.93)"/><path class="cls-1" d="M89,165.09A21.73,21.73,0,0,1,87.56,171l4.91,1.87a27.29,27.29,0,0,0,1.79-7.18,2.63,2.63,0,0,0-2.62-2.88h0A2.62,2.62,0,0,0,89,165.09Z" transform="translate(-30.05 -127.93)"/><path class="cls-1" d="M86.44,182l-3.71-3.72a22,22,0,0,1-6.37,4.44l2.41,4.67A27.39,27.39,0,0,0,86.44,182Z" transform="translate(-30.05 -127.93)"/><path class="cls-1" d="M76.36,182.68a21.64,21.64,0,0,1-6.8,1.87,2.62,2.62,0,0,0-2.32,2.6h0a2.62,2.62,0,0,0,2.89,2.61,26.75,26.75,0,0,0,8.64-2.42Z" transform="translate(-30.05 -127.93)"/><path class="cls-1" d="M86.7,143.83,83,147.54a21.78,21.78,0,0,1,3.6,5,2.62,2.62,0,0,0,3.31,1.18h0A2.62,2.62,0,0,0,91.23,150,26.92,26.92,0,0,0,86.7,143.83Z" transform="translate(-30.05 -127.93)"/><path class="cls-1" d="M70.13,135.74a2.63,2.63,0,0,0-2.89,2.62h0A2.62,2.62,0,0,0,69.56,141a21.72,21.72,0,0,1,6,1.53l2.26-4.74A26.87,26.87,0,0,0,70.13,135.74Z" transform="translate(-30.05 -127.93)"/><path class="cls-1" d="M86.7,143.83a27.13,27.13,0,0,0-8.85-6.07l-2.26,4.74a22.11,22.11,0,0,1,7.4,5Z" transform="translate(-30.05 -127.93)"/><path class="cls-2" d="M45.83,188h5.26a13.76,13.76,0,0,1,1.07-5.34l-4.91-1.87A19,19,0,0,0,45.83,188Z" transform="translate(-30.05 -127.93)"/><path class="cls-2" d="M47.25,180.74l4.91,1.87a13.85,13.85,0,0,1,3-4.49l-3.72-3.71A19.14,19.14,0,0,0,47.25,180.74Z" transform="translate(-30.05 -127.93)"/><path class="cls-2" d="M59.54,175.16a13.74,13.74,0,0,1,3.2-.94A2.64,2.64,0,0,0,65,171.63h0A2.62,2.62,0,0,0,62,169a18.83,18.83,0,0,0-4.84,1.45Z" transform="translate(-30.05 -127.93)"/><path class="cls-2" d="M51.45,174.41l3.72,3.71a13.79,13.79,0,0,1,4.37-3l-2.41-4.68A19.32,19.32,0,0,0,51.45,174.41Z" transform="translate(-30.05 -127.93)"/><path class="cls-2" d="M54.9,197.51a14,14,0,0,1-2.84-4.45l-4.86,2a19.32,19.32,0,0,0,4,6.17Z" transform="translate(-30.05 -127.93)"/><path class="cls-2" d="M47.2,195.05l4.86-2a13.78,13.78,0,0,1-1-5.11H45.83A19.06,19.06,0,0,0,47.2,195.05Z" transform="translate(-30.05 -127.93)"/><path class="cls-2" d="M60.09,201a14,14,0,0,1-5.19-3.45l-3.71,3.71a19.44,19.44,0,0,0,6.64,4.5Z" transform="translate(-30.05 -127.93)"/><path class="cls-2" d="M62,206.87a2.61,2.61,0,0,0,3-2.59h0a2.64,2.64,0,0,0-2.25-2.6,13.81,13.81,0,0,1-2.65-.72l-2.26,4.76A18.52,18.52,0,0,0,62,206.87Z" transform="translate(-30.05 -127.93)"/><path class="cls-2" d="M61.34,198.33l2.25-4.73a2.44,2.44,0,0,0-.44-.19,5.72,5.72,0,0,1-2.48-1.67L57,195.46A11,11,0,0,0,61.34,198.33Z" transform="translate(-30.05 -127.93)"/><path class="cls-2" d="M61.62,198.43A2.61,2.61,0,0,0,65,195.92h0a2.64,2.64,0,0,0-1.4-2.31l-2.25,4.73Z" transform="translate(-30.05 -127.93)"/><path class="cls-2" d="M60.67,191.74l-.13-.15a2.6,2.6,0,0,0-3-.76h0a2.62,2.62,0,0,0-1.05,4.08c.15.19.31.37.48.55Z" transform="translate(-30.05 -127.93)"/><path class="cls-2" d="M57.21,180.17l3.72,3.71a5.74,5.74,0,0,1,2.35-1.43h0l-2.42-4.7A11.05,11.05,0,0,0,57.21,180.17Z" transform="translate(-30.05 -127.93)"/><path class="cls-2" d="M63.29,182.44A2.65,2.65,0,0,0,65,180h0a2.61,2.61,0,0,0-3.37-2.51c-.26.08-.5.17-.75.27Z" transform="translate(-30.05 -127.93)"/><path class="cls-2" d="M57.86,184.78h0a2.58,2.58,0,0,0,2.84-.66l.23-.24-3.72-3.71c-.14.14-.27.28-.4.43A2.62,2.62,0,0,0,57.86,184.78Z" transform="translate(-30.05 -127.93)"/><path class="cls-2" d="M62.56,158.36A2.63,2.63,0,0,0,65,155.75h0a2.62,2.62,0,0,0-2.85-2.61,34.47,34.47,0,0,0-12.23,3.32l2.4,4.66A29.71,29.71,0,0,1,62.56,158.36Z" transform="translate(-30.05 -127.93)"/><path class="cls-2" d="M45.81,165.32a30,30,0,0,1,6.5-4.21l-2.4-4.66a35,35,0,0,0-7.54,4.9,2.62,2.62,0,0,0-.13,3.84h0A2.62,2.62,0,0,0,45.81,165.32Z" transform="translate(-30.05 -127.93)"/><path class="cls-2" d="M40,212.37l3.71-3.71A29.78,29.78,0,0,1,37.46,199l-4.87,2A35.11,35.11,0,0,0,40,212.37Z" transform="translate(-30.05 -127.93)"/><path class="cls-2" d="M30.05,188h5.26a29.19,29.19,0,0,1,1.3-8.66,2.62,2.62,0,0,0-1.59-3.2h0a2.63,2.63,0,0,0-3.46,1.72A34.65,34.65,0,0,0,30.05,188Z" transform="translate(-30.05 -127.93)"/><path class="cls-2" d="M37.46,199A29.54,29.54,0,0,1,35.31,188H30.05A34.77,34.77,0,0,0,32.59,201Z" transform="translate(-30.05 -127.93)"/><path class="cls-2" d="M40,212.37a35.13,35.13,0,0,0,11,7.61l2.25-4.75a30,30,0,0,1-9.55-6.57Z" transform="translate(-30.05 -127.93)"/><path class="cls-2" d="M62.14,222.77A2.62,2.62,0,0,0,65,220.16h0a2.63,2.63,0,0,0-2.43-2.61,29.58,29.58,0,0,1-9.26-2.31L51.05,220A34.53,34.53,0,0,0,62.14,222.77Z" transform="translate(-30.05 -127.93)"/><path class="cls-2" d="M39.77,177.89l4.91,1.87a21.94,21.94,0,0,1,4.83-7.3l-3.71-3.71A27.22,27.22,0,0,0,39.77,177.89Z" transform="translate(-30.05 -127.93)"/><path class="cls-2" d="M43.21,185.62a21.27,21.27,0,0,1,1.47-5.86l-4.91-1.87A26.91,26.91,0,0,0,38,185.07,2.63,2.63,0,0,0,40.6,188h0A2.63,2.63,0,0,0,43.21,185.62Z" transform="translate(-30.05 -127.93)"/><path class="cls-2" d="M45.8,168.75l3.71,3.71A22.1,22.1,0,0,1,55.87,168l-2.4-4.67A27.25,27.25,0,0,0,45.8,168.75Z" transform="translate(-30.05 -127.93)"/><path class="cls-2" d="M55.87,168a21.7,21.7,0,0,1,6.81-1.87A2.61,2.61,0,0,0,65,163.55h0a2.62,2.62,0,0,0-2.89-2.61,26.76,26.76,0,0,0-8.63,2.42Z" transform="translate(-30.05 -127.93)"/><path class="cls-2" d="M45.53,206.88l3.72-3.71a22.12,22.12,0,0,1-3.61-5,2.62,2.62,0,0,0-3.3-1.18h0A2.62,2.62,0,0,0,41,200.68,27.4,27.4,0,0,0,45.53,206.88Z" transform="translate(-30.05 -127.93)"/><path class="cls-2" d="M62.1,215A2.61,2.61,0,0,0,65,212.35h0a2.61,2.61,0,0,0-2.31-2.61,21.46,21.46,0,0,1-6-1.54L54.39,213A26.55,26.55,0,0,0,62.1,215Z" transform="translate(-30.05 -127.93)"/><path class="cls-2" d="M45.53,206.88A27.17,27.17,0,0,0,54.39,213l2.25-4.75a21.9,21.9,0,0,1-7.39-5Z" transform="translate(-30.05 -127.93)"/><path class="cls-2" d="M62.81,220.2A19.56,19.56,0,0,0,60,218.39c-.07,0-2.51,1.35-2.51,1.35s-2.9,7.57-3.9,10.35a.31.31,0,0,0,.11.36h0a.32.32,0,0,0,.39,0c2.52-2,9.9-8.2,9.9-8.2A5.46,5.46,0,0,0,62.81,220.2Z" transform="translate(-30.05 -127.93)"/></svg>