<svg width="408" height="98" viewBox="0 0 408 98" fill="none" xmlns="http://www.w3.org/2000/svg">
<path d="M292.332 38.1792V35.525C292.332 31.4417 292.332 27.5625 290.904 26.1334C289.476 24.7042 288.252 23.4792 286.824 23.4792C285.396 23.4792 284.172 23.4792 282.744 24.9084C281.316 24.9084 281.316 26.3375 281.316 28.9917C281.316 31.6459 281.316 33.075 282.744 34.3C282.744 35.7292 284.172 36.9542 285.396 36.9542L294.78 46.3459C296.208 47.775 297.432 49 298.86 50.4292C300.288 51.8584 301.512 53.0834 301.512 54.5125C302.94 55.9417 302.94 58.5959 302.94 59.8209C302.94 62.475 302.94 63.9042 302.94 66.5584C302.94 73.2959 301.512 78.6042 298.86 81.2584C296.208 85.3417 292.128 86.5667 286.824 86.5667C281.52 86.5667 277.44 83.9125 274.788 79.8292C272.136 75.7459 270.708 69.0084 270.708 62.475V59.8209H280.092V65.1292C280.092 67.7834 280.092 70.4375 280.092 71.8667C281.52 71.8667 281.52 73.2959 281.52 74.5209C281.52 75.7459 282.948 75.95 284.172 77.175C285.6 77.175 285.6 77.175 286.824 77.175C288.252 77.175 289.476 75.7459 290.904 74.5209C292.332 73.0917 292.332 70.4375 292.332 69.2125C292.332 66.5584 292.332 65.1292 290.904 62.475C289.476 61.0459 288.252 57.1667 285.6 55.7375L277.644 49C272.34 44.9167 269.688 38.1792 269.688 30.2167C269.688 27.5625 269.688 24.9084 271.116 22.2542C272.544 19.6 272.544 18.1709 273.768 16.9459C276.42 14.2917 279.072 12.8625 280.5 12.8625C281.928 11.4334 284.58 11.4334 287.232 11.4334C300.696 11.4334 301.92 23.4792 301.92 34.3V38.3834C301.716 38.1792 292.332 38.1792 292.332 38.1792ZM226.848 11.4334H238.884H252.348V23.4792H238.884V49H248.268V58.3917H238.884V89.2209H226.848V56.9625V49V22.2542V11.4334ZM254.796 11.4334H266.832V87.7917H254.796V11.4334ZM305.796 11.4334H317.832V47.5709H327.216V11.4334H339.252V87.7917H327.216V56.9625H317.832V87.7917H305.796V56.9625V49V11.4334ZM137.088 11.4334H149.124V74.5209C149.124 77.175 150.552 78.6042 153.204 78.6042C155.856 78.6042 157.284 77.175 157.284 74.5209V11.4334H169.32V74.5209C169.32 82.4834 162.588 89.2209 154.632 89.2209H151.98C144.024 89.2209 137.292 82.4834 137.292 74.5209C137.088 74.5209 137.088 11.4334 137.088 11.4334ZM99.552 11.4334H110.364V38.1792L121.176 11.4334H131.988L116.892 44.9167L131.58 87.7917H120.768L109.956 50.225V86.3625H99.144V11.4334H99.552ZM36.516 79.8292H40.596C42.024 79.8292 43.248 78.4 43.248 77.175C44.676 75.7459 44.676 66.3542 44.676 62.475C44.676 58.3917 44.676 57.1667 43.248 54.5125C43.248 53.0834 41.82 51.8584 40.596 51.8584H36.516V79.8292ZM37.944 20.825L36.516 23.4792V43.4875H40.596C42.024 43.4875 43.248 42.0584 43.248 40.8334C44.676 39.4042 44.676 31.4417 44.676 28.7875C44.676 26.1334 44.676 23.4792 43.248 22.05C43.248 20.6209 41.82 19.3959 40.596 19.3959H37.944V20.825ZM363.324 58.3917L359.244 22.2542L356.592 58.3917C356.592 58.3917 363.324 58.3917 363.324 58.3917ZM206.652 58.3917L202.572 22.2542L199.92 58.3917H206.652ZM198.696 11.4334H209.508L221.544 87.7917H210.732L208.08 66.3542H198.696L196.044 87.7917H185.232L198.696 11.4334ZM80.784 58.3917L76.704 22.2542L74.052 58.3917H80.784ZM71.4 11.4334H82.212L94.248 87.7917H84.864L82.212 66.3542H72.828L70.176 87.7917H60.792L71.4 11.4334ZM8.56799 95.9584H367.404L370.056 87.9959H367.404L364.752 66.5584H355.368L352.716 87.7917H341.904L352.716 11.4334H363.528L372.912 73.0917L399.432 2.04169H44.472L40.392 11.4334C47.124 12.8625 52.428 16.7417 53.856 24.9084C53.856 28.9917 53.856 34.3 53.856 36.9542C53.856 38.3834 52.428 39.6084 52.428 41.0375C52.428 42.4667 51 43.6917 49.776 45.1209C48.348 46.55 47.124 47.775 45.696 47.775C47.124 47.775 49.776 49.2042 51 50.4292C53.652 53.0834 55.08 57.1667 55.08 62.475C56.508 70.4375 55.08 81.2584 49.776 86.5667C47.328 87.7917 44.676 87.7917 39.372 87.7917H25.908V50.4292L8.56799 95.9584Z" fill="#AEAEAE"/>
</svg>
