<svg width="280" height="64" viewBox="0 0 280 64" fill="none" xmlns="http://www.w3.org/2000/svg">
<path d="M25.145 0.132533C25.1972 0.09988 25.3018 0.0345738 25.354 0C25.061 1.31765 25.2887 2.66411 25.6919 3.92605C25.2196 5.00168 24.4804 5.92941 23.786 6.86099C23.381 6.0946 23.1234 5.25907 22.8732 4.42929C23.801 3.10396 24.697 1.71909 25.145 0.132533Z" fill="#AEAEAE"/>
<path d="M28.2325 0.00375366C28.5069 0.0748221 28.5237 0.378304 28.6096 0.606875C29.0221 2.0244 29.8714 3.24025 30.7114 4.4196C30.4445 5.25129 30.1757 6.08299 29.8229 6.88203C29.1005 5.95237 28.4546 4.96318 27.8797 3.93365C28.2997 2.67746 28.5722 1.31756 28.2325 0.00375366Z" fill="#AEAEAE"/>
<path d="M17.348 4.89608C18.5931 3.94722 19.8232 2.97339 20.9619 1.89008C20.8779 2.56811 20.8406 3.2519 20.8686 3.93569C19.8176 4.97483 18.707 5.95058 17.544 6.85526C17.4395 6.20604 17.3704 5.55298 17.348 4.89608Z" fill="#AEAEAE"/>
<path d="M32.6378 1.89197C33.7839 2.94839 34.9842 3.93759 36.2199 4.88068C36.2199 5.54335 36.1509 6.20409 36.0407 6.85716C34.9133 5.94863 33.7951 5.0209 32.7759 3.98561C32.7087 3.29413 32.7909 2.58152 32.6378 1.89197Z" fill="#AEAEAE"/>
<path d="M11.4773 8.88164C12.9072 8.05187 14.2736 7.11069 15.6288 6.15799C15.668 6.83026 15.7352 7.50253 15.8304 8.17096C14.4994 9.16399 13.1181 10.086 11.7256 10.983C11.621 10.2857 11.5389 9.58464 11.4773 8.88164Z" fill="#AEAEAE"/>
<path d="M37.9634 6.16562C39.3056 7.11832 40.6925 8.00379 42.1112 8.83165C42.0925 9.54041 42.0048 10.2434 41.8666 10.9387C40.4797 10.0533 39.089 9.17162 37.7749 8.17474C37.8477 7.5044 37.9149 6.83597 37.9634 6.16562Z" fill="#AEAEAE"/>
<path d="M43.625 9.68448C45.0343 10.4451 46.4474 11.2038 47.8884 11.903C47.8175 12.6905 47.7279 13.478 47.5898 14.2578C46.1431 13.5395 44.7319 12.7385 43.3823 11.8415C43.4757 11.1231 43.5597 10.4048 43.625 9.68448Z" fill="#AEAEAE"/>
<path d="M5.70374 11.9453C7.14853 11.2653 8.5672 10.5277 9.95786 9.73447C10.0157 10.449 10.0867 11.1635 10.2005 11.8704C8.85093 12.7712 7.42293 13.5414 5.99867 14.3059C5.85867 13.5241 5.76534 12.7366 5.70374 11.9453Z" fill="#AEAEAE"/>
<path d="M0.0346697 14.1599C1.55973 13.7489 3.02507 13.1381 4.4736 12.5023C4.44933 13.3436 4.49413 14.183 4.57626 15.0204C3.09413 15.7292 1.6064 16.4303 0.0776029 17.0257C-0.00266362 16.073 -0.0269303 15.1145 0.0346697 14.1599Z" fill="#AEAEAE"/>
<path d="M49.113 12.5023C50.5615 13.1438 52.0418 13.7085 53.5575 14.1561C53.5818 15.1126 53.5799 16.0711 53.5594 17.0295C52.0418 16.4303 50.5597 15.7388 49.0869 15.0319C49.0962 14.1887 49.1317 13.3455 49.113 12.5023Z" fill="#AEAEAE"/>
<path d="M18.2328 9.32536C19.2707 8.34961 20.2899 7.35273 21.2624 6.30783C21.5368 7.13376 21.8224 7.95585 22.1435 8.76449C21.212 9.80363 20.2488 10.812 19.2595 11.7955C18.8899 10.983 18.539 10.1647 18.2328 9.32536Z" fill="#AEAEAE"/>
<path d="M26.7914 6.30783C27.3477 7.30279 27.9768 8.25357 28.6525 9.16786C28.0925 10.1667 27.4578 11.1174 26.7914 12.0452C26.1362 11.1078 25.4754 10.1667 24.936 9.15057C25.621 8.25165 26.2389 7.29895 26.7914 6.30783Z" fill="#AEAEAE"/>
<path d="M32.3261 6.30969C33.2987 7.35267 34.3179 8.34955 35.3557 9.3253C35.0496 10.1628 34.6987 10.981 34.3309 11.7935C33.3323 10.8235 32.3653 9.82278 31.4451 8.77404C31.7997 7.97692 32.104 7.15483 32.3261 6.30969Z" fill="#AEAEAE"/>
<path d="M13.0882 13.5376C14.2325 12.6636 15.3506 11.7512 16.4669 10.8408C16.7264 11.732 17.0493 12.6002 17.389 13.4626C16.1533 14.5575 14.9101 15.6581 13.5624 16.6069C13.2357 15.7541 12.8605 14.9186 12.5973 14.0408C12.6458 13.793 12.9277 13.7027 13.0882 13.5376Z" fill="#AEAEAE"/>
<path d="M37.1197 10.8389C38.3909 11.9222 39.6957 12.9614 41.0322 13.9583C40.7224 14.8572 40.3807 15.7427 40.0093 16.6185C38.684 15.6351 37.424 14.5614 36.192 13.4589C36.513 12.5907 36.849 11.7263 37.1197 10.8389Z" fill="#AEAEAE"/>
<path d="M20.6314 14.3692C21.5722 13.3704 22.4925 12.3524 23.3679 11.2921C23.8999 12.3159 24.4917 13.3051 25.1282 14.2636C24.2733 15.295 23.3959 16.3054 22.5373 17.331C21.8503 16.3803 21.2474 15.3699 20.6314 14.3692Z" fill="#AEAEAE"/>
<path d="M28.5088 14.2175C29.1117 13.236 29.6997 12.243 30.2691 11.2404C31.1408 12.3025 32.0592 13.3244 33.0075 14.3136C32.4083 15.3258 31.7643 16.3093 31.1016 17.2793C30.1907 16.3035 29.3171 15.2855 28.5088 14.2175Z" fill="#AEAEAE"/>
<path d="M6.93195 17.8285C8.31141 16.9507 9.65354 16.0134 10.9901 15.0684C11.2887 16.0019 11.5986 16.9315 11.9626 17.842C10.6298 18.7851 9.33061 19.782 7.93994 20.6348C7.58528 19.707 7.22688 18.7793 6.93195 17.8285Z" fill="#AEAEAE"/>
<path d="M42.6468 15.1241C43.9852 16.0692 45.3367 16.9931 46.7012 17.8958C46.397 18.8428 46.0554 19.7801 45.6802 20.7001C44.325 19.807 42.9922 18.8792 41.6687 17.9362C42.0271 17.0103 42.3724 16.0788 42.6468 15.1241Z" fill="#AEAEAE"/>
<path d="M15.1024 19.6476C16.3344 18.5546 17.5197 17.4099 18.7181 16.2766C19.2576 17.3618 19.8549 18.4125 20.4765 19.4497C19.3266 20.5811 18.1581 21.6913 16.9578 22.765C16.3026 21.7489 15.6866 20.7078 15.1024 19.6476Z" fill="#AEAEAE"/>
<path d="M33.11 19.4478C33.7036 18.3952 34.2934 17.3407 34.8665 16.2766C36.0462 17.4291 37.2484 18.5566 38.4841 19.6456C37.9092 20.7136 37.2969 21.7623 36.6137 22.7611C35.4321 21.6721 34.2729 20.558 33.11 19.4478Z" fill="#AEAEAE"/>
<path d="M0.667847 21.5607C2.23024 20.8039 3.67504 19.8281 5.17771 18.958C5.41477 19.9664 5.67984 20.9652 5.95051 21.964C4.46464 22.8937 2.96758 23.806 1.44811 24.6781C1.16065 23.6466 0.880646 22.6113 0.667847 21.5607Z" fill="#AEAEAE"/>
<path d="M48.4223 18.9522C49.8596 19.8934 51.3231 20.7962 52.8594 21.5568C52.6839 22.6171 52.3722 23.6447 52.0884 24.6761C50.5708 23.8022 49.0738 22.8956 47.5898 21.964C47.9034 20.971 48.1964 19.9702 48.4223 18.9522Z" fill="#AEAEAE"/>
<path d="M9.48376 24.2247C10.783 23.2048 12.0654 22.1637 13.3366 21.1073C13.9022 22.2079 14.4416 23.3239 15.0016 24.4283C13.7808 25.5289 12.5022 26.5565 11.2347 27.6014C10.628 26.4893 10.0232 25.3733 9.48376 24.2247Z" fill="#AEAEAE"/>
<path d="M40.1997 21.1092C41.4784 22.1599 42.7589 23.2124 44.0637 24.2304C43.5112 25.3714 42.9139 26.4873 42.3053 27.5975C41.036 26.5565 39.7816 25.5001 38.5347 24.4302C39.1264 23.343 39.6789 22.2348 40.1997 21.1092Z" fill="#AEAEAE"/>
<path d="M3.06799 28.9556C4.54079 27.951 5.97439 26.8908 7.41919 25.8478C7.89145 27.0559 8.44212 28.2295 9.08052 29.3551C7.63759 30.4653 6.15359 31.5179 4.68079 32.5858C4.10213 31.395 3.55706 30.1868 3.06799 28.9556Z" fill="#AEAEAE"/>
<path d="M44.6498 29.3608C45.2098 28.2084 45.7176 27.029 46.2122 25.8458C47.7261 26.8331 49.141 27.9817 50.668 28.9556C50.1621 30.1791 49.6282 31.3911 49.0552 32.5839C47.5749 31.5255 46.1021 30.4576 44.6498 29.3608Z" fill="#AEAEAE"/>
<path d="M24.2994 19.8473C25.1581 18.8139 25.9888 17.7556 26.7952 16.678C27.5997 17.7575 28.4528 18.7966 29.2872 19.8492C28.4789 20.8922 27.6594 21.9236 26.7952 22.9186C25.9496 21.9083 25.1096 20.8903 24.2994 19.8473Z" fill="#AEAEAE"/>
<path d="M18.9216 25.6979C20.0696 24.582 21.1746 23.418 22.2424 22.2194C23.0021 23.297 23.7506 24.3822 24.5421 25.4348C23.4781 26.5872 22.4029 27.7301 21.2661 28.8057C20.4578 27.7916 19.6701 26.7601 18.9216 25.6979Z" fill="#AEAEAE"/>
<path d="M29.0425 25.4367C29.8377 24.386 30.6124 23.3181 31.346 22.2194C32.41 23.4045 33.4572 24.6069 34.6201 25.6922C33.8529 26.7428 33.0783 27.7858 32.2756 28.8077C31.1649 27.7167 30.1028 26.5776 29.0425 25.4367Z" fill="#AEAEAE"/>
<path d="M13.2898 30.9243C14.5031 29.8237 15.7109 28.7155 16.913 27.6053C17.6167 28.7366 18.3503 29.8487 19.0615 30.9743C17.9005 32.1133 16.6983 33.2062 15.4925 34.2953C14.7178 33.2005 13.9973 32.0653 13.2898 30.9243Z" fill="#AEAEAE"/>
<path d="M36.6268 27.6033C37.8047 28.7462 39.0218 29.8429 40.2482 30.9282C39.5388 32.0653 38.822 33.1985 38.0474 34.2895C36.8172 33.2312 35.6562 32.0922 34.4764 30.9762C35.2194 29.8698 35.9567 28.7577 36.6268 27.6033Z" fill="#AEAEAE"/>
<path d="M23.7656 31.7772C24.8128 30.6401 25.7909 29.4377 26.7952 28.2622C27.7752 29.4607 28.7757 30.6439 29.8266 31.7791C28.8429 32.945 27.8069 34.0629 26.797 35.2038C25.7592 34.0859 24.7642 32.9296 23.7656 31.7772Z" fill="#AEAEAE"/>
<path d="M6.59039 36.5196C8.04266 35.3825 9.48559 34.2319 10.8931 33.0391C11.5613 34.2492 12.2688 35.4362 12.9949 36.6098C11.58 37.8257 10.1352 39.005 8.69226 40.1863C7.97546 38.9743 7.25679 37.7623 6.59039 36.5196Z" fill="#AEAEAE"/>
<path d="M40.6402 36.5599C41.3589 35.3805 42.057 34.1896 42.7439 32.9911C44.1775 34.1493 45.585 35.3402 47.0485 36.4581C46.3615 37.6912 45.6727 38.9243 44.9485 40.1344C43.4813 38.982 42.0589 37.7738 40.6402 36.5599Z" fill="#AEAEAE"/>
<path d="M21.4117 34.3491C22.3282 35.5553 23.228 36.775 24.152 37.9755C23.0394 39.1606 21.8821 40.3035 20.68 41.3925C19.7541 40.2439 18.8805 39.0511 17.9901 37.8737C19.1437 36.7136 20.273 35.5265 21.4117 34.3491Z" fill="#AEAEAE"/>
<path d="M29.3898 37.9678C30.3176 36.775 31.2378 35.5745 32.1264 34.351C33.2408 35.5361 34.3701 36.704 35.4976 37.8756C34.6389 39.0742 33.7373 40.2439 32.8114 41.3906C31.6373 40.2862 30.5098 39.1299 29.3898 37.9678Z" fill="#AEAEAE"/>
<path d="M11.2347 44.2142C12.672 42.9791 14.0701 41.6999 15.4403 40.3899C16.2765 41.6058 17.1371 42.8063 17.9883 44.0125C16.6088 45.3301 15.2032 46.619 13.7379 47.8329C12.8867 46.6401 12.0411 45.4415 11.2347 44.2142Z" fill="#AEAEAE"/>
<path d="M38.1444 40.3899C39.5407 41.6711 40.9351 42.9561 42.3519 44.2142C41.5492 45.4435 40.7279 46.6612 39.8487 47.8329C38.4058 46.594 36.9834 45.3282 35.6021 44.0163C36.4644 42.8178 37.3082 41.6077 38.1444 40.3899Z" fill="#AEAEAE"/>
<path d="M66.0213 18.7064C66.4245 18.7064 66.8295 18.7064 67.2346 18.7064C67.2327 21.1918 67.2365 23.6754 67.2327 26.1609C68.5525 26.1609 69.8703 26.1609 71.1901 26.1609C71.1882 26.5642 71.1882 26.9695 71.1882 27.3748C69.8703 27.3748 68.5525 27.3748 67.2346 27.3748C67.2365 30.183 67.2271 32.9911 67.2402 35.7993C67.2365 40.2555 71.2535 44.1412 75.5301 44.145C75.5282 44.5388 75.5282 44.9306 75.5301 45.3263C71.6623 45.4262 68.0298 42.7217 66.6503 39.055C66.2135 37.8948 66.0194 36.6463 66.0194 35.4036C66.0213 29.8372 66.0194 24.2727 66.0213 18.7064Z" fill="#AEAEAE"/>
<path d="M140.046 18.7083C140.43 18.7064 140.813 18.7064 141.201 18.7064C141.199 22.8341 141.205 26.9618 141.197 31.0876C142.418 28.946 144.283 27.0982 146.607 26.3088C149.052 25.5116 151.836 25.7498 154.07 27.0694C156.812 28.6982 158.847 31.7215 158.946 35.031C158.972 38.3481 158.947 41.6672 158.957 44.9844C158.574 44.9844 158.193 44.9844 157.813 44.9844C157.807 41.7306 157.831 38.4749 157.801 35.2192C157.727 30.8187 153.792 26.9445 149.517 27.0387C145.547 26.9215 141.845 30.2348 141.289 34.255C141.168 35.0214 141.203 35.7974 141.201 36.5695C141.201 39.3738 141.199 42.1801 141.201 44.9844C140.815 44.9844 140.43 44.9844 140.046 44.9844C140.046 36.2257 140.046 27.467 140.046 18.7083Z" fill="#AEAEAE"/>
<path d="M228.934 18.7083C229.353 18.7063 229.771 18.7063 230.195 18.7083C230.193 27.467 230.193 36.2257 230.195 44.9844C229.771 44.9844 229.353 44.9844 228.934 44.9844C228.934 36.2257 228.934 27.467 228.934 18.7083Z" fill="#AEAEAE"/>
<path d="M242.036 18.7083C242.438 18.7064 242.843 18.7083 243.25 18.7083C243.248 21.1918 243.25 23.6773 243.25 26.1628C244.562 26.1609 245.876 26.1609 247.192 26.1609C247.19 26.5642 247.188 26.9695 247.192 27.3748C245.878 27.3748 244.564 27.3748 243.25 27.3748C243.25 30.181 243.244 32.9892 243.252 35.7954C243.246 40.2555 247.267 44.1412 251.547 44.145C251.541 44.5388 251.54 44.9306 251.543 45.3244C248.753 45.3743 246.029 44.024 244.267 41.8094C242.828 40.1018 242.036 37.8526 242.036 35.5938C242.035 29.9659 242.035 24.3361 242.036 18.7083Z" fill="#AEAEAE"/>
<path d="M261.086 18.7083C261.463 18.7063 261.845 18.7063 262.23 18.7083C262.23 22.8398 262.232 26.9695 262.228 31.1011C263.035 29.697 264.085 28.4254 265.39 27.49C268.567 25.1332 273.249 25.3541 276.275 27.8819C278.457 29.6278 279.958 32.3323 279.989 35.2115C280.01 38.4691 279.993 41.7268 279.999 44.9863C279.611 44.9844 279.224 44.9844 278.843 44.9844C278.843 42.0475 278.841 39.1107 278.845 36.1738C278.883 34.9368 278.757 33.6768 278.306 32.5205C277.066 29.3243 273.88 26.9407 270.488 27.0386C266.9 26.9637 263.559 29.6816 262.555 33.1774C262.099 34.7063 262.258 36.3236 262.23 37.8987C262.23 40.2612 262.23 42.6218 262.23 44.9844C261.847 44.9844 261.463 44.9844 261.086 44.9844C261.088 36.2257 261.088 27.467 261.086 18.7083Z" fill="#AEAEAE"/>
<path d="M202.432 27.4228C205.754 25.1044 210.542 25.3772 213.605 28.049C215.679 29.7085 217.001 32.3092 217.076 35.0194C217.115 38.3404 217.079 41.6634 217.094 44.9863C216.706 44.9844 216.32 44.9844 215.937 44.9844C215.931 41.6173 215.952 38.2502 215.928 34.885C215.825 31.6446 213.514 28.8249 210.673 27.6302C208.287 26.6564 205.446 26.8811 203.272 28.3044C201.646 29.3647 200.294 30.9474 199.702 32.8528C198.988 35.1616 199.195 37.8026 200.427 39.8886C201.351 41.4502 202.693 42.7909 204.343 43.5111C206.398 44.4024 208.791 44.3716 210.846 43.4958C210.998 43.8569 211.151 44.2199 211.304 44.5829C208.797 45.672 205.821 45.6182 203.397 44.3217C201.858 43.4958 200.514 42.2684 199.561 40.776C198.211 38.6574 197.866 35.9721 198.351 33.5155C198.848 31.0261 200.41 28.8442 202.432 27.4228Z" fill="#AEAEAE"/>
<path d="M91.3649 26.1225C94.0062 25.5193 96.9145 26.0552 99.078 27.7628C101.118 29.2802 102.524 31.6466 102.873 34.2147C98.2846 34.2185 93.6964 34.2185 89.1081 34.2147C89.1081 33.8075 89.1081 33.4003 89.11 32.9931C93.2148 32.9911 97.3214 32.9969 101.428 32.9911C100.782 30.8149 99.2086 28.9998 97.2412 27.9914C94.9358 26.7582 92.022 26.7429 89.7577 28.0893C88.2233 29.0036 86.9017 30.3424 86.0748 31.9654C84.8428 34.4298 84.9772 37.5453 86.3678 39.9117C87.7305 42.2185 90.1292 43.9338 92.7854 44.1028C95.3726 44.3794 98.027 43.3018 99.7145 41.262C99.9982 41.5309 100.282 41.8017 100.566 42.0725C98.6393 44.1047 95.9476 45.4761 93.1438 45.3109C88.6433 45.2399 84.5852 41.3119 84.1428 36.7232C83.887 34.3741 84.4246 31.9097 85.7966 29.9967C87.1406 28.0951 89.1137 26.6199 91.3649 26.1225Z" fill="#AEAEAE"/>
<path d="M112.738 35.6091C112.626 31.0857 116.109 26.86 120.421 26.109C123.595 25.5193 127.082 26.6468 129.189 29.2034C128.92 29.4915 128.629 29.7546 128.34 30.0178C126.593 28.2372 124.209 26.9657 121.698 27.1539C117.422 27.2865 113.699 31.3969 113.89 35.8012C113.856 40.0384 117.414 43.9126 121.528 44.1124C124.059 44.3448 126.656 43.2941 128.304 41.2908C128.588 41.5616 128.872 41.8344 129.157 42.1071C127.223 44.1393 124.515 45.4953 121.707 45.309C116.858 45.1995 112.594 40.6051 112.738 35.6091Z" fill="#AEAEAE"/>
<path d="M176.726 26.134C179.315 25.5308 182.167 26.0129 184.325 27.6437C186.447 29.1592 187.918 31.5774 188.284 34.2127C183.696 34.2204 179.108 34.2166 174.519 34.2146C174.519 33.8074 174.517 33.4002 174.519 32.9949C178.624 32.9892 182.727 32.9969 186.832 32.9911C185.695 29.0305 181.422 26.4009 177.493 27.2096C175.072 27.6821 173 29.405 171.717 31.5275C170.414 33.7402 170.312 36.5983 171.296 38.9589C172.018 40.6454 173.285 42.0687 174.816 43.0156C176.713 44.1815 179.078 44.4062 181.196 43.8338C182.727 43.4209 184.075 42.4663 185.12 41.26C185.404 41.5308 185.688 41.8017 185.971 42.0744C184.605 43.4689 182.934 44.6098 181.04 45.0631C178.57 45.6643 175.845 45.2072 173.748 43.7128C171.818 42.3395 170.289 40.2881 169.748 37.916C169.173 35.3786 169.539 32.5781 170.945 30.3865C172.274 28.3063 174.342 26.6775 176.726 26.134Z" fill="#AEAEAE"/>
<path d="M23.564 44.9191C24.656 43.709 25.7181 42.4701 26.7952 41.2447C27.8442 42.4951 28.9362 43.7071 30.0226 44.921C28.9474 46.1811 27.876 47.4449 26.7896 48.6934C25.692 47.4565 24.613 46.2022 23.564 44.9191Z" fill="#AEAEAE"/>
<path d="M20.8218 47.7887C21.8877 49.0948 22.9311 50.4163 24.0045 51.7148C22.6735 53.1822 21.2997 54.6075 19.8885 55.9923C18.8263 54.6382 17.7549 53.2917 16.7151 51.9184C18.1095 50.5681 19.4741 49.187 20.8218 47.7887Z" fill="#AEAEAE"/>
<path d="M29.5335 51.7148C30.6292 50.4375 31.6727 49.116 32.7143 47.7926C34.0583 49.1774 35.4098 50.5546 36.7743 51.9184C35.7327 53.2917 34.665 54.644 33.5954 55.9943C32.2234 54.5863 30.857 53.1726 29.5335 51.7148Z" fill="#AEAEAE"/>
<path d="M22.8304 59.4689C24.1501 57.9746 25.4773 56.486 26.797 54.9897C28.1056 56.4937 29.4197 57.9938 30.7581 59.4689C29.4626 61.0036 28.1392 62.5114 26.7952 64C25.4512 62.5114 24.1501 60.9825 22.8304 59.4689Z" fill="#AEAEAE"/>
</svg>
