<svg width="281" height="63" viewBox="0 0 281 63" fill="none" xmlns="http://www.w3.org/2000/svg">
<path d="M25.1615 0.130462C25.2138 0.0983192 25.3184 0.0340336 25.3707 0C25.0775 1.29706 25.3054 2.62248 25.7088 3.8647C25.2362 4.92352 24.4966 5.83676 23.8017 6.75377C23.3964 5.99936 23.1386 5.17688 22.8883 4.36008C23.8166 3.05546 24.7132 1.69222 25.1615 0.130462Z" fill="#1471B0"/>
<path d="M28.2511 0.00375366C28.5257 0.0737115 28.5425 0.372451 28.6284 0.59745C29.0412 1.99283 29.8911 3.18967 30.7317 4.3506C30.4646 5.16929 30.1956 5.98799 29.8426 6.77454C29.1197 5.85942 28.4734 4.88568 27.8981 3.87224C28.3183 2.63568 28.5911 1.29703 28.2511 0.00375366Z" fill="#1471B0"/>
<path d="M17.3594 4.81956C18.6053 3.88553 19.8363 2.92692 20.9757 1.86053C20.8916 2.52797 20.8543 3.20108 20.8823 3.87419C19.8307 4.89708 18.7193 5.85759 17.5556 6.74813C17.451 6.10906 17.3819 5.4662 17.3594 4.81956Z" fill="#1471B0"/>
<path d="M32.6593 1.8624C33.8062 2.90231 35.0072 3.87605 36.2438 4.80441C36.2438 5.45672 36.1747 6.10714 36.0645 6.74999C34.9363 5.85567 33.8174 4.94243 32.7975 3.92332C32.7303 3.24265 32.8125 2.54118 32.6593 1.8624Z" fill="#1471B0"/>
<path d="M11.4849 8.74286C12.9157 7.92605 14.283 6.99958 15.6391 6.06177C15.6783 6.72353 15.7455 7.3853 15.8408 8.04328C14.509 9.0208 13.1267 9.92836 11.7333 10.8113C11.6287 10.125 11.5465 9.43487 11.4849 8.74286Z" fill="#1471B0"/>
<path d="M37.9885 6.06927C39.3315 7.00709 40.7193 7.87873 42.1389 8.69364C42.1202 9.39133 42.0325 10.0833 41.8942 10.7678C40.5064 9.89616 39.1148 9.02831 37.7998 8.047C37.8727 7.38713 37.9399 6.72915 37.9885 6.06927Z" fill="#1471B0"/>
<path d="M43.6538 9.53314C45.064 10.2819 46.478 11.0287 47.92 11.717C47.8491 12.4922 47.7594 13.2674 47.6212 14.035C46.1736 13.3279 44.7614 12.5394 43.4109 11.6565C43.5043 10.9493 43.5884 10.2422 43.6538 9.53314Z" fill="#1471B0"/>
<path d="M5.70752 11.7586C7.15327 11.0893 8.57287 10.3632 9.96445 9.58234C10.0224 10.2857 10.0933 10.9891 10.2073 11.6849C8.85679 12.5716 7.42785 13.3298 6.00265 14.0823C5.86255 13.3128 5.76916 12.5376 5.70752 11.7586Z" fill="#1471B0"/>
<path d="M0.0346925 13.9386C1.56076 13.534 3.02706 12.9328 4.47655 12.3069C4.45226 13.1351 4.49709 13.9613 4.57928 14.7857C3.09617 15.4834 1.60746 16.1735 0.0776541 16.7596C-0.00266538 15.8218 -0.026948 14.8783 0.0346925 13.9386Z" fill="#1471B0"/>
<path d="M49.1453 12.3069C50.5948 12.9384 52.076 13.4943 53.5928 13.9349C53.617 14.8764 53.6152 15.8199 53.5946 16.7634C52.076 16.1735 50.5929 15.4928 49.1191 14.797C49.1285 13.967 49.164 13.137 49.1453 12.3069Z" fill="#1471B0"/>
<path d="M18.2449 9.17963C19.2834 8.21913 20.3033 7.23783 21.2765 6.20926C21.551 7.02228 21.8368 7.83153 22.1581 8.62753C21.226 9.65043 20.2622 10.6431 19.2722 11.6111C18.9024 10.8114 18.5512 10.0059 18.2449 9.17963Z" fill="#1471B0"/>
<path d="M26.8091 6.20926C27.3657 7.18867 27.9952 8.12459 28.6714 9.02459C28.111 10.0078 27.4759 10.9437 26.8091 11.8569C26.1534 10.9343 25.4922 10.0078 24.9524 9.00757C25.6379 8.1227 26.2562 7.18489 26.8091 6.20926Z" fill="#1471B0"/>
<path d="M32.3475 6.21112C33.3206 7.2378 34.3405 8.2191 35.3791 9.1796C35.0727 10.004 34.7216 10.8094 34.3536 11.6092C33.3543 10.6544 32.3867 9.66931 31.4658 8.63696C31.8207 7.8523 32.1252 7.04305 32.3475 6.21112Z" fill="#1471B0"/>
<path d="M13.0969 13.326C14.2419 12.4657 15.3608 11.5676 16.4778 10.6714C16.7374 11.5487 17.0606 12.4033 17.4005 13.2523C16.164 14.33 14.92 15.4134 13.5714 16.3474C13.2445 15.5079 12.869 14.6855 12.6057 13.8214C12.6542 13.5775 12.9363 13.4886 13.0969 13.326Z" fill="#1471B0"/>
<path d="M37.1442 10.6696C38.4163 11.7359 39.7219 12.7588 41.0593 13.7401C40.7493 14.625 40.4074 15.4966 40.0357 16.3588C38.7095 15.3908 37.4487 14.3338 36.2159 13.2485C36.5372 12.3939 36.8734 11.5431 37.1442 10.6696Z" fill="#1471B0"/>
<path d="M20.6451 14.1447C21.5865 13.1615 22.5074 12.1594 23.3834 11.1157C23.9158 12.1235 24.5079 13.0972 25.1448 14.0407C24.2893 15.056 23.4114 16.0506 22.5522 17.0602C21.8648 16.1243 21.2615 15.1298 20.6451 14.1447Z" fill="#1471B0"/>
<path d="M28.5276 13.9954C29.1309 13.0292 29.7193 12.0517 30.289 11.0647C31.1613 12.1103 32.0803 13.1162 33.0292 14.0899C32.4296 15.0863 31.7852 16.0544 31.1221 17.0092C30.2106 16.0487 29.3364 15.0466 28.5276 13.9954Z" fill="#1471B0"/>
<path d="M6.93658 17.5499C8.31696 16.6859 9.65998 15.7632 10.9974 14.8329C11.2963 15.7518 11.6063 16.6669 11.9706 17.5632C10.6369 18.4915 9.33683 19.4728 7.94525 20.3123C7.59035 19.3991 7.23171 18.4859 6.93658 17.5499Z" fill="#1471B0"/>
<path d="M42.675 14.8878C44.0143 15.8181 45.3666 16.7275 46.7321 17.6162C46.4276 18.5483 46.0858 19.471 45.7103 20.3767C44.3542 19.4975 43.0206 18.5842 41.6962 17.6559C42.0549 16.7445 42.4004 15.8275 42.675 14.8878Z" fill="#1471B0"/>
<path d="M15.1123 19.3405C16.3451 18.2647 17.5312 17.1378 18.7304 16.0222C19.2702 17.0905 19.868 18.1248 20.49 19.1458C19.3393 20.2594 18.17 21.3523 16.969 22.4092C16.3134 21.409 15.697 20.3842 15.1123 19.3405Z" fill="#1471B0"/>
<path d="M33.132 19.1439C33.7259 18.1077 34.3162 17.0697 34.8896 16.0222C36.0702 17.1567 37.2731 18.2666 38.5096 19.3386C37.9343 20.3899 37.3216 21.4222 36.638 22.4054C35.4556 21.3334 34.2957 20.2367 33.132 19.1439Z" fill="#1471B0"/>
<path d="M0.667847 21.2237C2.23127 20.4788 3.67702 19.5183 5.18068 18.6617C5.4179 19.6544 5.68314 20.6376 5.95399 21.6208C4.46714 22.5359 2.96909 23.434 1.44863 24.2924C1.16097 23.2771 0.880787 22.258 0.667847 21.2237Z" fill="#1471B0"/>
<path d="M48.4543 18.6561C49.8926 19.5825 51.357 20.4712 52.8943 21.2199C52.7187 22.2636 52.4068 23.2752 52.1228 24.2905C50.6042 23.4302 49.1062 22.5378 47.6212 21.6208C47.935 20.6432 48.2283 19.6582 48.4543 18.6561Z" fill="#1471B0"/>
<path d="M9.48999 23.8462C10.79 22.8422 12.0733 21.8174 13.3453 20.7775C13.9113 21.8609 14.4511 22.9594 15.0115 24.0466C13.7899 25.13 12.5104 26.1415 11.2421 27.1701C10.635 26.0754 10.0298 24.9768 9.48999 23.8462Z" fill="#1471B0"/>
<path d="M40.2262 20.7793C41.5057 21.8136 42.7871 22.8497 44.0928 23.8518C43.5399 24.9749 42.9421 26.0734 42.3332 27.1663C41.063 26.1415 39.8078 25.1016 38.5601 24.0484C39.1522 22.9783 39.7051 21.8873 40.2262 20.7793Z" fill="#1471B0"/>
<path d="M3.07007 28.5031C4.54384 27.5143 5.97838 26.4706 7.42413 25.4439C7.89671 26.6332 8.44774 27.7884 9.08656 28.8964C7.64267 29.9892 6.1577 31.0254 4.68393 32.0766C4.10488 30.9044 3.55946 29.7151 3.07007 28.5031Z" fill="#1471B0"/>
<path d="M44.6793 28.902C45.2397 27.7676 45.7478 26.6067 46.2428 25.442C47.7576 26.4138 49.1735 27.5445 50.7014 28.5031C50.1952 29.7075 49.661 30.9006 49.0876 32.0747C47.6063 31.0329 46.1325 29.9817 44.6793 28.902Z" fill="#1471B0"/>
<path d="M24.3154 19.5371C25.1747 18.5199 26.0059 17.4781 26.8128 16.4174C27.6179 17.48 28.4715 18.5029 29.3064 19.539C28.4976 20.5657 27.6776 21.581 26.8128 22.5604C25.9667 21.5659 25.1261 20.5638 24.3154 19.5371Z" fill="#1471B0"/>
<path d="M18.934 25.2963C20.0828 24.1978 21.1886 23.052 22.257 21.8722C23.0172 22.9329 23.7663 24.0012 24.5583 25.0373C23.4936 26.1718 22.4176 27.2968 21.2801 28.3556C20.4713 27.3573 19.683 26.3419 18.934 25.2963Z" fill="#1471B0"/>
<path d="M29.0617 25.0392C29.8574 24.005 30.6326 22.9537 31.3667 21.8722C32.4314 23.0388 33.4793 24.2224 34.643 25.2907C33.8753 26.3249 33.1001 27.3516 32.2969 28.3575C31.1855 27.2835 30.1227 26.1623 29.0617 25.0392Z" fill="#1471B0"/>
<path d="M13.2986 30.4411C14.5127 29.3577 15.7212 28.2667 16.9242 27.1739C17.6284 28.2875 18.3624 29.3823 19.0741 30.4903C17.9123 31.6115 16.7094 32.6873 15.5027 33.7594C14.7275 32.6817 14.0065 31.5642 13.2986 30.4411Z" fill="#1471B0"/>
<path d="M36.651 27.172C37.8296 28.297 39.0475 29.3766 40.2747 30.4449C39.5649 31.5642 38.8476 32.6798 38.0724 33.7537C36.8415 32.7119 35.6797 31.5907 34.4991 30.4922C35.2426 29.4031 35.9804 28.3083 36.651 27.172Z" fill="#1471B0"/>
<path d="M23.7812 31.2806C24.8291 30.1613 25.8079 28.9777 26.8128 27.8205C27.7935 29.0004 28.7947 30.1651 29.8463 31.2825C28.8619 32.4302 27.8252 33.5306 26.8147 34.6537C25.7762 33.5533 24.7806 32.4151 23.7812 31.2806Z" fill="#1471B0"/>
<path d="M6.59473 35.9489C8.04795 34.8295 9.49183 33.697 10.9002 32.5228C11.5689 33.714 12.2769 34.8825 13.0035 36.0377C11.5876 37.2346 10.1419 38.3955 8.69798 39.5583C7.9807 38.3653 7.26157 37.1722 6.59473 35.9489Z" fill="#1471B0"/>
<path d="M40.667 35.9886C41.3861 34.8277 42.0847 33.6554 42.7721 32.4756C44.2067 33.6157 45.615 34.7879 47.0795 35.8884C46.3921 37.1022 45.7028 38.3161 44.9781 39.5073C43.5099 38.3728 42.0866 37.1835 40.667 35.9886Z" fill="#1471B0"/>
<path d="M21.4258 33.8123C22.3429 34.9997 23.2433 36.2003 24.1679 37.3821C23.0546 38.5487 21.8965 39.6737 20.6936 40.7457C19.7671 39.615 18.8929 38.4409 18.002 37.2818C19.1563 36.1398 20.2864 34.9713 21.4258 33.8123Z" fill="#1471B0"/>
<path d="M29.4092 37.3745C30.3375 36.2003 31.2584 35.0186 32.1475 33.8142C33.2626 34.9808 34.3927 36.1304 35.5209 37.2837C34.6617 38.4636 33.7595 39.615 32.833 40.7438C31.6581 39.6566 30.5299 38.5184 29.4092 37.3745Z" fill="#1471B0"/>
<path d="M11.2421 43.5232C12.6803 42.3075 14.0794 41.0483 15.4504 39.7588C16.2872 40.9556 17.1483 42.1373 18.0001 43.3247C16.6197 44.6218 15.2132 45.8905 13.7469 47.0854C12.8952 45.9113 12.049 44.7314 11.2421 43.5232Z" fill="#1471B0"/>
<path d="M38.1696 39.7588C39.5667 41.0199 40.9621 42.2848 42.3798 43.5232C41.5766 44.7333 40.7547 45.9321 39.8749 47.0854C38.4311 45.8659 37.0077 44.6199 35.6255 43.3285C36.4885 42.1487 37.3327 40.9575 38.1696 39.7588Z" fill="#1471B0"/>
<path d="M66.0648 18.414C66.4683 18.414 66.8736 18.414 67.2789 18.414C67.2771 20.8607 67.2808 23.3054 67.2771 25.752C68.5977 25.752 69.9164 25.752 71.237 25.752C71.2351 26.1491 71.2351 26.5481 71.2351 26.947C69.9164 26.947 68.5977 26.947 67.2789 26.947C67.2808 29.7113 67.2715 32.4756 67.2845 35.2399C67.2808 39.6264 71.3005 43.4514 75.5799 43.4552C75.578 43.8428 75.578 44.2285 75.5799 44.618C71.7096 44.7163 68.0747 42.0541 66.6943 38.4447C66.2572 37.3027 66.0629 36.0737 66.0629 34.8504C66.0648 29.371 66.0629 23.8934 66.0648 18.414Z" fill="#1471B0"/>
<path d="M140.138 18.4159C140.523 18.414 140.906 18.414 141.294 18.414C141.292 22.4773 141.298 26.5405 141.29 30.6018C142.512 28.4936 144.378 26.6747 146.704 25.8976C149.151 25.113 151.936 25.3474 154.171 26.6464C156.915 28.2497 158.951 31.2258 159.05 34.4835C159.077 37.7489 159.052 41.0161 159.062 44.2814C158.679 44.2814 158.298 44.2814 157.917 44.2814C157.911 41.0785 157.935 37.8737 157.905 34.6688C157.831 30.3371 153.893 26.5235 149.616 26.6161C145.643 26.5008 141.939 29.7623 141.382 33.7197C141.261 34.4741 141.296 35.238 141.294 35.998C141.294 38.7585 141.292 41.5209 141.294 44.2814C140.908 44.2814 140.523 44.2814 140.138 44.2814C140.138 35.6596 140.138 27.0378 140.138 18.4159Z" fill="#1471B0"/>
<path d="M229.085 18.4159C229.504 18.414 229.922 18.414 230.346 18.4159C230.344 27.0377 230.344 35.6596 230.346 44.2814C229.922 44.2814 229.504 44.2814 229.085 44.2814C229.085 35.6596 229.085 27.0377 229.085 18.4159Z" fill="#1471B0"/>
<path d="M242.196 18.4159C242.598 18.414 243.003 18.4159 243.41 18.4159C243.408 20.8607 243.41 23.3073 243.41 25.754C244.723 25.7521 246.038 25.7521 247.355 25.7521C247.353 26.1491 247.351 26.5481 247.355 26.947C246.04 26.947 244.725 26.947 243.41 26.947C243.41 29.7094 243.405 32.4737 243.412 35.2361C243.406 39.6264 247.43 43.4514 251.713 43.4552C251.707 43.8428 251.705 44.2285 251.709 44.6161C248.917 44.6653 246.191 43.3361 244.428 41.156C242.988 39.4752 242.196 37.2611 242.196 35.0376C242.194 29.4976 242.194 23.9558 242.196 18.4159Z" fill="#1471B0"/>
<path d="M261.258 18.4159C261.635 18.414 262.018 18.414 262.403 18.4159C262.403 22.4829 262.405 26.548 262.401 30.615C263.208 29.2329 264.26 27.9812 265.565 27.0604C268.744 24.7405 273.429 24.9579 276.457 27.4461C278.641 29.1648 280.142 31.827 280.174 34.6613C280.195 37.868 280.178 41.0747 280.183 44.2833C279.795 44.2814 279.408 44.2814 279.027 44.2814C279.027 41.3905 279.025 38.4995 279.029 35.6085C279.066 34.3909 278.941 33.1506 278.489 32.0123C277.249 28.8661 274.06 26.5197 270.666 26.6161C267.076 26.5424 263.733 29.2178 262.728 32.659C262.272 34.164 262.431 35.756 262.403 37.3064C262.403 39.6321 262.403 41.9558 262.403 44.2814C262.02 44.2814 261.635 44.2814 261.258 44.2814C261.26 35.6596 261.26 27.0377 261.258 18.4159Z" fill="#1471B0"/>
<path d="M202.565 26.9943C205.89 24.7121 210.681 24.9806 213.746 27.6107C215.821 29.2443 217.144 31.8043 217.219 34.4722C217.258 37.7413 217.222 41.0123 217.237 44.2833C216.849 44.2814 216.462 44.2814 216.079 44.2814C216.074 40.9669 216.094 37.6524 216.07 34.3398C215.967 31.1501 213.655 28.3745 210.812 27.1985C208.424 26.2399 205.582 26.4611 203.405 27.8621C201.779 28.9058 200.426 30.4638 199.834 32.3394C199.119 34.6121 199.326 37.2119 200.559 39.2653C201.483 40.8024 202.826 42.1222 204.478 42.8312C206.534 43.7085 208.929 43.6783 210.985 42.8161C211.137 43.1716 211.29 43.5289 211.443 43.8863C208.934 44.9583 205.957 44.9054 203.531 43.6291C201.991 42.8161 200.647 41.6079 199.692 40.1388C198.342 38.0533 197.996 35.41 198.482 32.9917C198.979 30.5413 200.542 28.3934 202.565 26.9943Z" fill="#1471B0"/>
<path d="M91.4251 25.7142C94.0682 25.1206 96.9784 25.6481 99.1433 27.329C101.185 28.8226 102.591 31.1521 102.941 33.68C98.3494 33.6838 93.7581 33.6838 89.1668 33.68C89.1668 33.2792 89.1668 32.8783 89.1687 32.4775C93.2762 32.4756 97.3856 32.4813 101.495 32.4756C100.849 30.3334 99.274 28.5466 97.3053 27.554C94.9984 26.3401 92.0826 26.325 89.8169 27.6504C88.2815 28.5504 86.959 29.8682 86.1315 31.4659C84.8987 33.8918 85.0332 36.9586 86.4248 39.288C87.7883 41.5588 90.1886 43.2472 92.8466 43.4136C95.4355 43.6859 98.0916 42.6252 99.7802 40.6172C100.064 40.8819 100.348 41.1485 100.632 41.4151C98.7043 43.4155 96.0108 44.7655 93.2052 44.6029C88.7017 44.5329 84.6409 40.6663 84.1982 36.1493C83.9423 33.8369 84.4803 31.4111 85.8532 29.5279C87.1981 27.6561 89.1724 26.204 91.4251 25.7142Z" fill="#1471B0"/>
<path d="M112.813 35.0527C112.7 30.6 116.186 26.4403 120.501 25.701C123.676 25.1206 127.165 26.2304 129.274 28.747C129.005 29.0306 128.714 29.2897 128.424 29.5487C126.676 27.796 124.291 26.5443 121.778 26.7296C117.499 26.86 113.775 30.9063 113.965 35.2418C113.931 39.4128 117.492 43.2264 121.608 43.4231C124.141 43.6518 126.74 42.6176 128.389 40.6455C128.673 40.9121 128.957 41.1806 129.243 41.4491C127.307 43.4495 124.597 44.7844 121.788 44.601C116.935 44.4932 112.669 39.9705 112.813 35.0527Z" fill="#1471B0"/>
<path d="M176.842 25.7256C179.433 25.1319 182.287 25.6065 184.446 27.2117C186.57 28.7035 188.042 31.084 188.408 33.6781C183.817 33.6856 179.225 33.6819 174.634 33.68C174.634 33.2791 174.632 32.8783 174.634 32.4793C178.742 32.4737 182.847 32.4812 186.955 32.4756C185.817 28.5768 181.542 25.9884 177.61 26.7844C175.187 27.2495 173.114 28.9455 171.83 31.0348C170.527 33.213 170.424 36.0264 171.408 38.3501C172.131 40.0102 173.4 41.4113 174.931 42.3434C176.829 43.4911 179.196 43.7123 181.316 43.1489C182.847 42.7424 184.196 41.8026 185.242 40.6153C185.526 40.8819 185.81 41.1484 186.094 41.4169C184.726 42.7896 183.055 43.9127 181.159 44.3589C178.688 44.9508 175.96 44.5008 173.863 43.0297C171.931 41.6779 170.402 39.6585 169.86 37.3235C169.285 34.8258 169.651 32.069 171.057 29.9117C172.387 27.864 174.457 26.2607 176.842 25.7256Z" fill="#1471B0"/>
<path d="M23.5795 44.2172C24.6722 43.026 25.735 41.8065 26.8128 40.6002C27.8626 41.831 28.9553 43.0241 30.0424 44.2191C28.9665 45.4594 27.8943 46.7035 26.8072 47.9325C25.7089 46.7149 24.6292 45.4802 23.5795 44.2172Z" fill="#1471B0"/>
<path d="M20.8356 47.042C21.9021 48.3277 22.9463 49.6285 24.0203 50.9067C22.6885 52.3512 21.3137 53.7541 19.9016 55.1174C18.8388 53.7844 17.7666 52.459 16.7262 51.1071C18.1215 49.7779 19.4869 48.4184 20.8356 47.042Z" fill="#1471B0"/>
<path d="M29.553 50.9067C30.6494 49.6493 31.6936 48.3485 32.7359 47.0457C34.0808 48.409 35.4331 49.7646 36.7985 51.1071C35.7563 52.459 34.6878 53.7901 33.6175 55.1193C32.2446 53.7333 30.8773 52.3417 29.553 50.9067Z" fill="#1471B0"/>
<path d="M22.8455 58.5396C24.1661 57.0686 25.4941 55.6033 26.8147 54.1304C28.1241 55.6109 29.4391 57.0875 30.7784 58.5396C29.4821 60.0503 28.1578 61.5346 26.8129 62.9999C25.468 61.5346 24.1661 60.0295 22.8455 58.5396Z" fill="#1471B0"/>
</svg>
