<svg width="156" height="224" viewBox="0 0 156 224" fill="none" xmlns="http://www.w3.org/2000/svg">
<path d="M69.6885 140.858C70.0721 139.333 70.4557 136.218 68.7295 133.167C67.3869 130.751 58.8836 123.569 51.5951 117.784C52.3623 118.42 59.2033 124.014 32.7344 102.72L27.1721 103.927C59.7148 130.306 62.9115 133.167 63.4869 133.612C65.341 135.137 68.282 137.998 69.241 141.176C69.241 141.239 69.3049 141.303 69.3049 141.43C69.5607 140.795 69.7525 140.222 69.7525 139.587C69.6885 139.587 69.6885 140.095 69.6885 140.858Z" fill="url(#paint0_linear)"/>
<path d="M68.7934 142.129C68.7295 142.066 68.6656 141.939 68.6656 141.875C67.4508 139.587 59.9066 133.23 53.0016 127.7L29.4738 108.631C31.5836 110.411 40.1508 117.339 24.359 104.563L18.9885 105.771L50.8918 131.514V131.578C56.4541 136.218 62.4639 141.176 63.4869 142.066C64.2541 142.701 65.7246 143.973 66.6836 144.99L66.7475 145.053C67.5787 144.227 68.4098 143.274 68.9213 142.32C68.8574 142.193 68.7934 142.193 68.7934 142.129Z" fill="url(#paint1_linear)"/>
<path d="M65.2131 146.325L65.1492 146.261C62.1443 143.528 56.3262 138.76 51.0836 134.629C51.0836 134.629 45.5852 130.243 15.8557 106.406L10.4852 107.55C40.7902 132.023 57.477 145.625 61.5689 148.994C61.6328 148.994 61.6328 149.058 61.6328 149.058C62.9115 148.104 63.8066 147.405 64.1902 147.151C64.5098 146.897 64.8295 146.642 65.2131 146.325Z" fill="url(#paint2_linear)"/>
<path d="M59.9066 150.329C49.8689 142.257 29.3459 125.73 7.54426 108.186L2.0459 109.394C24.4869 127.51 47.759 146.452 56.1344 153.19L56.1984 153.253C57.541 152.236 58.8197 151.219 59.9705 150.393C59.9066 150.329 59.9066 150.329 59.9066 150.329Z" fill="url(#paint3_linear)"/>
<path d="M12.5951 224C14.577 218.851 18.0934 215.419 22.1852 212.876C25.7656 210.588 35.9951 206.138 34.3328 201.562C36.123 200.863 37.5295 200.1 38.6803 199.274C40.1508 198.129 42.0049 195.778 44.1148 193.871C44.6262 193.489 45.1377 193.108 45.6492 192.663C45.7131 192.599 45.777 192.599 45.777 192.536C53.1934 186.879 63.5508 179.06 65.277 177.725C68.0262 175.628 69.4328 172.132 69.4967 170.161C69.4967 168.127 69.5607 165.521 69.5607 165.521C69.4967 168.318 66.4279 171.369 63.8705 173.339C61.8246 174.928 38.1689 192.917 38.1689 192.917V192.981C38.041 193.044 37.9131 193.108 37.7213 193.235C36.6344 194.061 34.9721 196.032 33.7574 196.413C32.2229 196.922 31.0082 197.494 31.6475 199.528C32.4148 202.007 24.2311 206.202 21.9934 207.855C19.1803 209.889 16.3672 212.177 14.3213 214.847C12.4672 217.199 10.677 220.123 12.5951 224Z" fill="#972161"/>
<path d="M23.0164 201.053C24.5508 197.557 27.3639 196.477 30.3689 195.968C32.7984 195.587 33.7574 194.888 33.7574 192.472C33.7574 191.201 33.5656 189.612 35.3557 189.739C35.8033 189.803 36.9541 190.692 38.1689 189.612C38.1689 189.612 62.5918 171.051 65.4049 168.953C68.1541 166.856 69.5607 163.36 69.6246 161.389C69.6246 159.355 69.6885 156.749 69.6885 156.749C69.6246 159.546 66.5557 162.597 63.9984 164.568C61.8885 166.157 38.2967 184.145 38.2967 184.145C37.7852 184.527 37.2738 185.226 36.7623 186.434C36.5705 186.879 36.6344 187.324 36.123 187.641C35.6754 187.959 35.2279 187.896 34.9082 187.832C29.8574 187.26 29.7934 187.387 28.7705 192.345C28.5787 193.362 27.0443 194.57 26.0213 194.761C22.8246 195.333 19.6918 198.129 18.4771 201.244C18.2213 201.88 18.541 202.833 18.7328 203.151C20.2033 205.566 16.9426 208.808 20.8426 204.994C21.418 204.486 22.5689 202.134 23.0164 201.053Z" fill="#ED3035"/>
<path d="M64.2541 146.833C63.359 147.532 58.6918 151.092 53.5131 155.033C52.3623 155.923 51.2115 156.813 50.0607 157.639C44.1148 162.152 38.5525 165.33 38.5525 165.33C36.7623 166.919 35.3557 170.606 31.6475 169.97C31.4557 169.97 31.1361 170.098 30.8803 170.225C29.5377 171.178 28.1951 174.674 26.7885 175.628C25.7016 176.39 24.6148 175.882 23.4639 176.708C22.3131 177.153 19.1803 183.319 19.1803 183.319C19.1803 183.319 19.2443 183.446 19.3082 183.637C19.3721 183.764 19.3082 184.018 19.4361 184.145C19.5639 184.336 19.6279 184.336 19.9475 184.018C20.2033 183.764 20.5869 183.319 21.1623 182.429C22.7607 180.014 26.0213 178.806 26.5328 178.615C27.4279 178.361 28.3869 178.869 29.5377 178.107C30.7525 177.28 32.2869 175.501 33.182 174.293C33.7574 173.467 34.4607 171.496 34.9721 171.814C36.9541 173.022 38.2967 171.369 39.3197 170.225C41.1738 168.826 45.777 166.411 50.6361 162.724C57.2213 157.703 64.2541 152.363 65.6606 151.283C68.4098 149.185 69.8164 145.689 69.8803 143.718C69.8803 141.684 69.9443 139.078 69.9443 139.078C69.8803 141.812 66.8115 144.863 64.2541 146.833Z" fill="#F37920"/>
<path d="M64.1262 155.669C63.0393 156.495 55.9426 161.898 49.4852 166.856C47.6311 168.254 45.777 168.572 44.1787 169.843C40.8541 172.386 38.4885 175.246 38.4885 175.246C37.4656 175.818 35.8672 177.662 34.7803 178.107C33.3738 178.742 32.7344 178.806 31.5197 179.569C29.0902 181.158 26.9803 184.972 25.1902 187.196C23.9754 188.722 22.8885 188.404 21.9295 190.184C21.0984 191.646 20.7148 193.362 20.0754 195.142C21.0984 195.142 20.9066 195.142 21.2902 194.506C22.6328 192.472 24.1033 192.409 25.7656 190.629C27.5557 188.722 29.6016 185.099 31.9672 183.764C32.8623 183.255 33.182 183.446 34.141 183.065C35.4197 182.556 37.2098 181.666 38.4246 180.776C38.4246 180.776 38.4885 180.713 38.6164 180.586C38.7443 180.522 38.8082 180.395 38.9361 180.331C39.8951 179.569 42.1328 176.772 44.9459 174.674C46.3525 173.594 46.2885 174.674 49.5492 172.259C56.3902 167.11 64.0623 161.199 65.5967 160.054C68.3459 157.957 69.7525 154.461 69.8164 152.49C69.8164 150.456 69.8803 147.85 69.8803 147.85C69.8164 150.647 66.6836 153.698 64.1262 155.669Z" fill="#F05A27"/>
<path d="M71.7984 115.178C46.3525 94.5199 43.6033 92.1044 43.0918 91.6595C41.2377 90.0704 38.2328 87.21 37.2738 83.9682C37.2738 83.9047 37.2098 83.8411 37.2098 83.714C36.9541 84.3496 36.7623 84.9217 36.7623 85.5573C36.7623 85.5573 36.7623 85.0488 36.7623 84.286C36.3787 85.8751 35.9951 88.9898 37.7213 92.1044C39.0639 94.5834 47.6951 101.83 55.1115 107.678C54.3443 107.042 47.8869 101.766 71.7344 120.899C71.7344 118.992 71.7984 117.085 71.7984 115.178Z" fill="url(#paint4_linear)"/>
<path d="M71.9262 106.661L55.9426 93.7571V93.6935C50.3164 88.9898 44.2426 83.9682 43.2197 83.0783C42.3885 82.3791 40.982 81.1078 39.959 80.0908L39.8951 80.0273C39 80.9172 38.2328 81.807 37.6574 82.8241C37.6574 82.8876 37.7213 82.9512 37.7213 82.9512C37.7852 83.0148 37.7852 83.1419 37.8492 83.2055C39.1279 85.4938 46.6721 91.9137 53.7049 97.571L71.7984 112.254C71.7984 111.936 71.7984 111.619 71.7984 111.301C71.8623 109.775 71.9262 108.25 71.9262 106.661Z" fill="url(#paint5_linear)"/>
<path d="M72.3098 98.143C56.9016 85.6844 47.9508 78.311 45.0738 75.9591C45.0098 75.9591 45.0098 75.8956 45.0098 75.8956C43.7311 76.9126 42.7721 77.6118 42.4525 77.8661C42.1328 78.1203 41.7492 78.3746 41.4295 78.6924L41.4934 78.756C44.4984 81.4892 50.4443 86.3201 55.7508 90.5789C55.7508 90.5789 58.7557 92.9308 71.9902 103.61C71.9902 102.402 71.9902 101.131 72.0541 99.9228C72.0541 99.2872 72.118 98.7151 72.3098 98.143Z" fill="url(#paint6_linear)"/>
<path d="M78.7033 94.647C66.1721 84.4767 55.623 75.8956 50.5721 71.7639L50.5082 71.7003C49.1016 72.7809 47.823 73.7344 46.6721 74.6243L46.7361 74.6879C52.682 79.4552 62.2082 87.1464 73.5246 96.2361C74.1639 95.664 74.9951 95.2826 75.9541 95.0919C76.9131 94.9648 77.8082 94.7741 78.7033 94.647Z" fill="url(#paint7_linear)"/>
<path d="M94.6229 0C92.577 5.21226 89.0607 8.70829 84.9049 11.2509C81.2607 13.5392 70.9033 18.0522 72.5656 22.756C70.7754 23.4552 69.3049 24.2815 68.218 25.1078C66.6836 26.252 64.8934 28.6674 62.6557 30.5743C62.1443 30.9557 61.6328 31.3371 61.0574 31.7821C60.9934 31.8456 60.9295 31.8456 60.9295 31.9092C53.3852 37.63 42.9639 45.5755 41.1738 46.9103C38.3607 49.0715 36.9541 52.5675 36.8902 54.6016C36.8902 56.6356 36.8262 59.3053 36.8262 59.3053C36.8902 56.445 40.023 53.3939 42.6443 51.3598C44.7541 49.7707 68.6656 31.5278 68.6656 31.5278V31.4642C68.7934 31.4007 68.9852 31.3371 69.1131 31.21C70.2 30.3837 71.9262 28.4132 73.141 27.9682C74.7393 27.4597 75.9541 26.8241 75.3148 24.79C74.5475 22.2474 82.7951 17.9887 85.0967 16.336C87.9738 14.3019 90.7869 12.0136 92.8967 9.28036C94.8147 6.86493 96.6049 3.94098 94.6229 0Z" fill="#6A489C"/>
<path d="M84.0738 23.2645C82.5393 26.7605 79.6623 27.9047 76.5934 28.4132C74.1 28.7946 73.2049 29.4938 73.141 31.9728C73.141 33.3076 73.3328 34.8967 71.4787 34.706C71.0311 34.6425 69.8803 33.689 68.6016 34.8331C68.6016 34.8331 43.859 53.6481 41.0459 55.8093C38.2328 57.9705 36.8262 61.4665 36.7623 63.5006C36.7623 65.5346 36.6984 68.2043 36.6984 68.2043C36.7623 65.3439 39.8951 62.2929 42.5164 60.2588C44.6262 58.6697 68.5377 40.4268 68.5377 40.4268C69.0492 40.0454 69.5607 39.3462 70.1361 38.0749C70.3279 37.63 70.2639 37.185 70.7754 36.8036C71.2229 36.4858 71.6705 36.5494 71.9902 36.6129C77.1049 37.185 77.1688 37.0579 78.2557 32.0363C78.4475 31.0193 79.982 29.8116 81.0688 29.5573C84.2656 28.9852 87.4623 26.1249 88.677 22.9467C88.9328 22.311 88.6131 21.3575 88.4213 21.0397C86.9508 18.5607 90.2754 15.319 86.3115 19.1964C85.7361 19.7684 84.5852 22.1839 84.0738 23.2645Z" fill="#0A4E9B"/>
<path d="M42.3246 78.2474C43.2197 77.5482 48.0148 73.9251 53.1934 69.9841C54.3443 69.0942 55.4951 68.2043 56.7098 67.3144C62.7197 62.7378 68.3459 59.5596 68.3459 59.5596C70.1361 57.9705 71.5426 54.2202 75.3148 54.8558C75.5066 54.9194 75.8262 54.7287 76.082 54.6016C77.4246 53.6481 78.8311 50.0885 80.2377 49.1351C81.3246 48.3723 82.4754 48.8808 83.6262 48.0545C84.777 47.6095 87.9738 41.3802 87.9738 41.3802C87.9738 41.3802 87.9098 41.2531 87.8459 41.0624C87.782 40.9353 87.8459 40.681 87.718 40.5539C87.5902 40.3632 87.5262 40.3632 87.2065 40.681C86.9508 40.9353 86.5672 41.4438 85.9918 42.3337C84.3934 44.8127 81.0688 46.0204 80.5574 46.2111C79.6623 46.4654 78.6393 45.9569 77.5525 46.7196C76.2738 47.546 74.7393 49.3893 73.8443 50.597C73.2688 51.4234 72.5656 53.4574 72.0541 53.076C70.0721 51.8048 68.6656 53.521 67.6426 54.7287C65.7885 56.1271 61.1213 58.6061 56.1984 62.3564C49.5492 67.4415 42.3885 72.8445 40.982 73.9251C38.1689 76.0863 36.7623 79.5823 36.6984 81.6163C36.6984 83.6504 36.6344 86.3201 36.6344 86.3201C36.5705 83.3326 39.7033 80.2179 42.3246 78.2474Z" fill="#00A7DE"/>
<path d="M42.4525 69.2849C43.5393 68.4586 50.7639 62.9285 57.2852 57.9705C59.2033 56.5085 61.0574 56.1907 62.6557 54.983C66.0443 52.4404 68.4738 49.4529 68.4738 49.4529C69.4967 48.8808 71.159 46.9739 72.2459 46.5289C73.6525 45.8933 74.3557 45.8297 75.5705 45.067C78.0639 43.4779 80.1738 39.6004 82.0279 37.3757C83.2426 35.8502 84.3934 36.168 85.3525 34.3246C86.1836 32.7991 86.5672 31.0829 87.2066 29.3031C86.1836 29.3031 86.3754 29.3031 85.9279 29.9387C84.5213 32.0363 83.0508 32.0363 81.3885 33.8161C79.5344 35.7866 77.4885 39.4098 75.1229 40.7446C74.2279 41.2531 73.9082 41.0624 72.8852 41.5074C71.6066 42.0159 69.8164 42.9693 68.5377 43.8592C68.5377 43.8592 68.4738 43.9228 68.3459 44.0499C68.218 44.1135 68.0902 44.2406 68.0262 44.3042C67.0033 45.067 64.7656 47.8638 61.9525 50.025C60.482 51.1056 60.6098 50.025 57.2852 52.504C50.3164 57.7162 42.5803 63.6913 41.0459 64.8354C38.2328 66.9966 36.8262 70.4926 36.7623 72.5267C36.7623 74.5607 36.6984 77.2304 36.6984 77.2304C36.6984 74.37 39.8312 71.2554 42.4525 69.2849Z" fill="#0080C0"/>
<path d="M75.1869 99.9864C75.1869 99.5414 75.2508 98.9694 76.4656 98.7151L84.841 97.0624C91.8738 95.664 94.559 98.143 94.559 101.512C94.559 103.737 93.2164 105.961 90.4672 107.423V107.551C93.7918 107.805 95.7738 109.712 95.7738 112.826C95.7738 116.577 93.2803 120.581 85.8 122.17L76.5295 124.141C75.6344 124.331 75.2508 123.95 75.2508 123.187L75.1869 99.9864ZM87.782 103.546C87.782 102.402 87.0147 101.258 83.6902 101.957L82.2836 102.211C81.7721 102.338 81.5164 102.593 81.5164 102.847V106.788C81.5164 106.978 81.8361 107.169 82.3475 107.042L83.7541 106.788C86.6951 106.279 87.782 104.881 87.782 103.546ZM84.1377 117.784C87.3984 117.085 88.8049 115.369 88.8049 113.716C88.8049 112.064 87.5262 110.792 84.1377 111.491L82.2836 111.873C81.5803 112 81.5803 112.445 81.5803 112.636V117.911C81.5803 118.229 81.7721 118.293 82.1557 118.229L84.1377 117.784Z" fill="#E5E5E5"/>
<path d="M114.315 114.86C114.315 115.369 114.379 116.068 113.036 116.386L109.392 117.149C107.921 117.467 109.072 116.386 108.241 116.577C108.113 116.577 107.985 116.704 107.857 116.831C107.09 117.594 105.556 118.229 104.277 118.484C101.144 119.119 98.3951 117.784 98.3951 113.462C98.3951 107.932 103.254 105.453 106.962 103.61L108.049 103.037C108.369 102.847 108.497 102.656 108.497 102.402C108.497 101.321 106.962 101.385 105.748 101.639C104.725 101.83 103.766 102.148 102.807 102.593C101.656 103.101 101.208 103.419 100.697 103.546C100.185 103.673 99.8656 103.419 99.8656 103.037V100.876C99.8656 100.304 100.313 98.9058 106.259 97.6981C113.675 96.1725 114.379 99.0965 114.379 101.703L114.315 114.86ZM108.433 107.423C108.433 107.169 108.113 107.169 107.857 107.36L107.09 107.932C105.684 108.949 104.533 110.03 104.533 111.936C104.533 113.081 105.044 114.034 106.451 113.716C107.602 113.462 108.433 112.636 108.433 112V107.423Z" fill="#E5E5E5"/>
<path d="M134.646 92.2316C135.349 92.1044 135.669 92.4858 135.221 93.0579L129.659 99.7321C129.339 100.114 129.467 100.304 129.531 100.431L135.477 110.411C135.989 111.301 135.605 111.746 134.966 111.873L130.682 112.763C129.723 112.953 129.403 112.191 129.02 111.619L125.503 105.326C125.375 105.072 125.12 105.135 124.928 105.389L124.033 106.533C123.841 106.788 123.713 106.978 123.713 107.296V113.208C123.713 114.161 123.074 114.352 122.498 114.479L119.046 115.178C117.895 115.432 117.831 114.924 117.831 114.415V91.4688C117.831 90.5153 118.47 90.3246 119.046 90.2611L122.498 89.5619C123.649 89.3076 123.713 89.8797 123.713 90.3246V99.5414C123.713 99.7321 123.905 99.8593 124.225 99.4779L128.572 93.9478C128.828 93.63 129.02 93.3121 129.851 93.185L134.646 92.2316Z" fill="#E5E5E5"/>
<path d="M153.826 106.851C153.826 107.741 153.187 107.995 152.611 108.059L148.775 108.885C148.328 108.949 147.944 108.758 147.944 108.377V108.25C147.944 107.995 147.689 108.059 147.561 108.059C147.433 108.059 147.369 108.186 147.241 108.313C146.154 109.394 144.748 109.966 143.405 110.22C140.784 110.792 137.843 110.03 137.843 106.152V92.4858C137.843 91.5959 138.482 91.3417 139.057 91.2781L142.51 90.5789C143.085 90.4518 143.725 90.3882 143.725 91.3416V103.927C143.725 104.817 144.492 105.389 145.77 105.135C147.944 104.69 147.88 102.91 147.88 102.084V90.4518C147.88 89.5619 148.52 89.3076 149.095 89.244L152.548 88.5448C153.123 88.4177 153.762 88.3541 153.762 89.3076L153.826 106.851Z" fill="#E5E5E5"/>
<path d="M78.5115 140.413C78.5115 141.049 78.1279 141.176 77.6803 141.303L75.8902 141.684C75.4426 141.748 75.059 141.812 75.059 141.176V128.844C75.059 128.463 75.059 128.145 75.8902 128.018L77.9361 127.573C78.4475 127.446 78.7033 127.764 78.7672 127.891L81.2607 131.578C81.3246 131.705 81.4525 131.896 81.5164 131.832C81.5803 131.768 81.7082 131.578 81.7721 131.451L84.2656 126.747C84.3934 126.556 84.5852 126.175 85.1607 126.048L87.1426 125.603C87.9098 125.412 87.9738 125.73 87.9738 126.111V138.316C87.9738 138.951 87.5902 139.078 87.1426 139.142L85.3525 139.523C84.5852 139.714 84.5213 139.396 84.5213 139.015V132.086C84.5213 132.023 84.5213 131.959 84.4574 131.959C84.4574 131.959 84.3934 131.959 84.3934 132.023L82.6033 136.091C82.5393 136.281 82.3475 136.663 81.9639 136.726L81.1967 136.917C80.941 136.981 80.6852 136.854 80.5574 136.536L78.7033 133.103C78.7033 133.04 78.5115 133.103 78.5115 133.167V140.413Z" fill="#E5E5E5"/>
<path d="M98.2033 136.091C98.2033 136.345 98.2672 136.726 97.5 136.917L95.518 137.362C94.7508 137.553 95.3262 136.981 94.8787 137.044C94.8148 137.044 94.7508 137.108 94.6869 137.171C94.2394 137.553 93.4721 137.934 92.7689 138.061C91.1066 138.443 89.5721 137.68 89.5721 135.328C89.5721 132.341 92.1934 131.006 94.1754 129.989L94.7508 129.671C94.9426 129.544 95.0066 129.48 95.0066 129.289C95.0066 128.717 94.1754 128.717 93.5361 128.908C92.9607 129.035 92.5131 129.226 91.9377 129.417C91.2984 129.671 91.1066 129.862 90.7869 129.925C90.5311 129.989 90.3393 129.862 90.3393 129.671V128.463C90.3393 128.145 90.5951 127.383 93.7918 126.683C97.7557 125.857 98.2033 127.383 98.2033 128.781V136.091ZM95.0066 132.086C95.0066 131.959 94.8148 131.959 94.6869 132.086L94.3033 132.404C93.5361 132.976 92.8967 133.548 92.8967 134.565C92.8967 135.201 93.1525 135.709 93.9197 135.519C94.559 135.392 95.0066 134.947 95.0066 134.565V132.086Z" fill="#E5E5E5"/>
<path d="M103.19 135.137C103.19 135.646 102.87 135.773 102.551 135.837L100.697 136.218C100.121 136.345 100.057 136.091 100.057 135.837V126.175C100.057 125.666 100.377 125.539 100.697 125.476L102.807 125.031C102.934 125.031 103.254 124.967 103.254 125.221V125.412C103.254 125.539 103.318 125.539 103.382 125.539C103.446 125.539 103.51 125.476 103.702 125.285C104.149 124.903 104.725 124.459 105.811 124.204C106.451 124.077 106.515 124.268 106.515 124.522V126.365C106.515 126.747 106.131 126.81 105.939 126.874L105.492 126.938C105.172 127.001 104.533 127.192 103.957 127.764C103.19 128.59 103.254 129.48 103.254 130.116V135.137H103.19Z" fill="#E5E5E5"/>
<path d="M115.849 132.277C115.849 132.531 115.913 132.913 115.146 133.103L113.164 133.548C112.397 133.739 112.972 133.167 112.525 133.23C112.461 133.23 112.397 133.294 112.333 133.358C111.885 133.739 111.118 134.12 110.415 134.247C108.752 134.629 107.218 133.93 107.218 131.578C107.218 128.59 109.839 127.255 111.821 126.238L112.397 125.921C112.589 125.793 112.652 125.73 112.652 125.539C112.652 124.967 111.821 125.031 111.182 125.158C110.607 125.285 110.159 125.476 109.584 125.666C108.944 125.921 108.752 126.111 108.433 126.175C108.177 126.238 107.985 126.111 107.985 125.921V124.713C107.985 124.395 108.241 123.632 111.438 122.933C115.402 122.107 115.849 123.632 115.849 125.031V132.277ZM112.716 128.272C112.716 128.145 112.525 128.145 112.397 128.272L112.013 128.59C111.246 129.162 110.607 129.734 110.607 130.751C110.607 131.387 110.862 131.832 111.63 131.705C112.269 131.578 112.716 131.133 112.716 130.751V128.272Z" fill="#E5E5E5"/>
<path d="M120.772 118.674C120.964 118.611 121.284 118.42 121.284 118.865V121.026C121.284 121.153 121.284 121.28 121.603 121.217L122.498 121.026C122.818 120.963 123.138 120.899 123.138 121.407V122.297C123.138 122.806 122.818 122.933 122.498 122.997L121.539 123.187C121.348 123.251 121.284 123.314 121.284 123.442V128.654C121.284 129.353 121.475 129.607 122.307 129.48C122.754 129.353 122.562 129.353 123.01 129.289C123.202 129.226 123.266 129.353 123.266 129.544V131.006C123.266 131.387 123.074 131.578 121.667 131.896C119.174 132.468 118.151 131.959 118.151 130.179V124.268C118.151 124.014 117.895 124.077 117.831 124.077L117.448 124.141C117.192 124.204 116.936 124.204 116.936 123.696V122.806C116.936 122.297 117.192 122.234 117.448 122.17L117.831 122.107C117.895 122.107 118.151 122.043 118.151 121.789V120.39C118.151 120.263 118.215 120.073 118.47 119.946L120.772 118.674Z" fill="#E5E5E5"/>
<path d="M124.416 118.229C124.416 117.721 124.736 117.594 125.056 117.53L126.91 117.149C127.485 117.022 127.549 117.276 127.549 117.53V120.073V120.2C127.549 120.327 127.677 120.327 127.741 120.263C128.444 120.136 128.316 119.437 129.979 119.056C131.385 118.738 132.984 119.119 132.984 121.28V128.654C132.984 129.162 132.664 129.289 132.344 129.353L130.49 129.734C129.915 129.862 129.851 129.607 129.851 129.353V122.552C129.851 122.043 129.403 121.725 128.764 121.916C127.613 122.17 127.613 123.124 127.613 123.569V129.862C127.613 130.37 127.293 130.497 126.974 130.561L125.12 130.942C124.544 131.069 124.48 130.815 124.48 130.561V118.229H124.416Z" fill="#E5E5E5"/>
<path d="M134.71 121.916C134.71 120.454 135.157 117.975 139.121 117.149C143.085 116.322 143.533 118.547 143.533 120.009V123.251C143.533 124.713 143.085 127.192 139.121 128.018C135.157 128.845 134.71 126.62 134.71 125.158V121.916ZM137.907 124.904C137.907 125.921 138.61 125.984 139.185 125.857C139.761 125.73 140.464 125.348 140.464 124.331V120.263C140.464 119.246 139.761 119.183 139.185 119.31C138.61 119.437 137.907 119.818 137.907 120.835V124.904Z" fill="#E5E5E5"/>
<path d="M145.387 116.513C145.387 116.005 145.707 115.877 146.026 115.814L148.072 115.369C148.328 115.305 148.52 115.432 148.52 115.623V115.687C148.52 115.75 148.52 115.814 148.711 115.814C148.775 115.814 148.839 115.75 148.903 115.687C149.223 115.369 149.798 114.924 150.949 114.67C152.356 114.352 153.954 114.733 153.954 116.831V124.141C153.954 124.649 153.634 124.776 153.315 124.84L151.461 125.221C150.885 125.348 150.821 125.094 150.821 124.84V118.039C150.821 117.53 150.374 117.212 149.734 117.403C148.584 117.657 148.584 118.611 148.584 119.056V125.285C148.584 125.793 148.264 125.921 147.944 125.984L146.09 126.365C145.515 126.493 145.451 126.238 145.451 125.984L145.387 116.513Z" fill="#E5E5E5"/>
<path d="M76.7213 173.022C75.1229 173.403 75.059 172.767 75.059 172.005C75.059 171.877 75.059 171.814 75.059 171.687C75.123 167.555 79.2148 162.597 81.4525 160.054C84.9049 156.113 86.9508 154.27 86.9508 150.965C86.9508 148.804 86.2475 147.532 84.0738 148.041C81.5803 148.613 81.3885 150.583 81.3885 151.6V152.49C81.3885 153.825 80.5574 154.079 79.7262 154.27L76.5934 154.969C75.7623 155.16 74.9311 155.287 74.9311 153.952V152.872C74.9311 146.706 80.4934 144.036 84.3295 143.21C90.0836 141.939 93.9197 144.418 93.9197 149.312C93.9197 158.084 85.4164 158.211 83.1787 166.347C83.1148 166.538 83.1148 166.792 83.4984 166.729L92.0016 164.758C92.8328 164.568 93.6639 164.44 93.6639 165.775V167.746C93.6639 169.081 92.8328 169.335 92.0016 169.526L76.7213 173.022Z" fill="#E5E5E5"/>
<path d="M97.0525 148.74C97.0525 143.21 101.4 139.46 106.451 138.379C111.502 137.299 115.849 139.078 115.849 144.545V156.05C115.849 161.58 111.502 165.33 106.451 166.474C101.336 167.682 97.0525 165.902 97.0525 160.309V148.74ZM104.085 159.482C104.085 161.516 105.3 161.834 106.451 161.58C108.752 161.072 108.816 158.974 108.816 158.402V145.308C108.816 144.481 108.689 142.701 106.451 143.21C105.428 143.464 104.085 144.227 104.085 146.388V159.482Z" fill="#E5E5E5"/>
<path d="M124.544 142.638C124.544 142.257 124.352 142.193 123.905 142.257L119.557 143.21C117.959 143.591 117.895 142.892 117.895 142.193V140.413C117.895 140.032 117.959 139.142 119.238 138.824L120.452 138.57C122.115 138.188 123.905 137.171 124.992 136.027C126.27 134.692 125.823 134.375 127.229 134.057L129.915 133.485C131.513 133.103 131.577 133.802 131.577 134.502V158.974C131.577 160.309 130.746 160.499 129.915 160.69L126.207 161.516C124.608 161.898 124.544 161.262 124.544 160.563V142.638Z" fill="#E5E5E5"/>
<path d="M153.762 146.706C153.762 149.884 153.251 155.669 143.149 157.957C135.605 159.673 135.925 158.338 135.925 157.703V154.715C135.925 154.588 135.989 154.207 136.692 154.016C141.039 152.999 138.993 154.27 142.638 153.444C146.666 152.49 146.73 149.821 146.73 148.422V147.469C146.73 147.342 146.73 147.215 146.41 147.278C146.154 147.342 146.026 147.532 145.323 148.041C144.492 148.613 143.085 149.121 142.062 149.312C138.93 150.011 134.966 149.503 134.966 144.608V139.205C134.966 134.82 138.61 131.26 144.684 129.925C152.931 128.145 153.762 133.23 153.762 136.154V146.706ZM141.87 142.193C141.87 143.655 142.83 144.227 144.3 143.909C145.898 143.528 146.73 142.447 146.73 141.112V136.409C146.73 135.201 145.962 134.311 144.3 134.692C142.51 135.074 141.87 136.282 141.87 137.489V142.193Z" fill="#E5E5E5"/>
<defs>
<linearGradient id="paint0_linear" x1="25.6942" y1="98.2773" x2="73.7705" y2="141.73" gradientUnits="userSpaceOnUse">
<stop stop-color="#D7DF23"/>
<stop offset="1" stop-color="#4D5500"/>
</linearGradient>
<linearGradient id="paint1_linear" x1="21.1961" y1="103.213" x2="69.2725" y2="146.666" gradientUnits="userSpaceOnUse">
<stop stop-color="#D7DF23"/>
<stop offset="1" stop-color="#4D5500"/>
</linearGradient>
<linearGradient id="paint2_linear" x1="16.7954" y1="108.123" x2="64.8716" y2="151.576" gradientUnits="userSpaceOnUse">
<stop stop-color="#D7DF23"/>
<stop offset="1" stop-color="#4D5500"/>
</linearGradient>
<linearGradient id="paint3_linear" x1="12.2603" y1="113.141" x2="60.3365" y2="156.594" gradientUnits="userSpaceOnUse">
<stop stop-color="#D7DF23"/>
<stop offset="1" stop-color="#4D5500"/>
</linearGradient>
<linearGradient id="paint4_linear" x1="67.6553" y1="114.23" x2="34.195" y2="85.3108" gradientUnits="userSpaceOnUse">
<stop stop-color="#D7DF23"/>
<stop offset="1" stop-color="#4D5500"/>
</linearGradient>
<linearGradient id="paint5_linear" x1="71.5706" y1="109.701" x2="38.1103" y2="80.7809" gradientUnits="userSpaceOnUse">
<stop stop-color="#D7DF23"/>
<stop offset="1" stop-color="#4D5500"/>
</linearGradient>
<linearGradient id="paint6_linear" x1="75.8923" y1="104.7" x2="42.432" y2="75.7805" gradientUnits="userSpaceOnUse">
<stop stop-color="#D7DF23"/>
<stop offset="0.2402" stop-color="#A6AE17"/>
<stop offset="0.4689" stop-color="#80880D"/>
<stop offset="0.6785" stop-color="#646C06"/>
<stop offset="0.8622" stop-color="#535B02"/>
<stop offset="1" stop-color="#4D5500"/>
</linearGradient>
<linearGradient id="paint7_linear" x1="80.2572" y1="99.65" x2="46.797" y2="70.7304" gradientUnits="userSpaceOnUse">
<stop stop-color="#D7DF23"/>
<stop offset="1" stop-color="#4D5500"/>
</linearGradient>
</defs>
</svg>
