<svg width="98" height="150" viewBox="0 0 98 150" fill="none" xmlns="http://www.w3.org/2000/svg">
<path d="M87.4538 70.9286H87.2704C84.767 70.9147 82.3483 71.8349 80.486 73.509C78.9786 69.336 75.1479 66.3364 70.661 66.3364C67.911 66.3557 65.2843 67.485 63.3791 69.4701C61.6273 65.9224 58.1128 63.5158 54.072 63.5158H53.8768C51.7111 63.4826 49.598 64.1872 47.8847 65.5127V40.2209C47.8847 34.109 43.1277 29.1371 37.3414 29.1371C31.5615 29.1371 26.8292 34.1058 26.826 40.2134L26.7777 90.3938L23.9387 86.9447C21.4492 83.8443 17.7847 81.9192 13.82 81.6286C9.93671 81.3626 6.11671 82.7139 3.26485 85.365L0.794667 87.4123C-0.00192432 88.073 -0.229216 89.199 0.247882 90.1171L24.2646 136.296C28.6561 144.735 37.0112 150 46.0696 150H73.1355V149.976C86.8587 149.976 97.9853 138.065 97.9992 123.438C98.0046 116.894 97.9799 112.017 97.9842 108.064C97.9982 97.487 97.9874 93.5843 97.9606 81.9321C97.9467 75.8341 93.224 70.9286 87.4538 70.9286ZM93.5606 108.049C93.5563 112.003 93.5499 116.9 93.5435 123.444C93.5317 135.652 84.3189 145.606 73.0068 145.606H46.0707C38.6558 145.606 31.7931 141.247 28.1618 134.267L4.96203 89.6731L6.10707 88.7175C6.13601 88.6939 6.16389 88.666 6.19176 88.6414C8.16126 86.7871 10.8116 85.8347 13.5101 86.0117C16.2687 86.223 18.8139 87.5721 20.539 89.7353L27.2602 97.916C27.8477 98.6335 28.8233 98.9026 29.696 98.5906C30.5688 98.2785 31.152 97.4505 31.152 96.5239L31.1917 40.2156C31.1938 36.5285 33.9813 33.5288 37.3435 33.5288C40.7057 33.5288 43.4933 36.5317 43.4933 40.2209V74.1718C43.4933 74.2897 43.4879 74.4088 43.4879 74.5289C43.4879 74.5804 43.4933 74.6329 43.4933 74.6833V89.199C43.4933 90.412 44.4764 91.3954 45.689 91.3954C46.9016 91.3954 47.8847 90.412 47.8847 89.199V74.2458C47.8847 70.6884 50.6015 67.9086 53.8768 67.9086H54.072C57.4363 67.9086 60.2356 70.8418 60.2356 74.531V87.8134C60.2356 89.0264 61.2188 90.0098 62.4314 90.0098C63.6439 90.0098 64.6271 89.0264 64.6271 87.8134V77.3924C64.6271 73.702 67.2924 70.7002 70.675 70.7002C74.0382 70.7002 76.7035 73.701 76.7035 77.3924V87.2236C76.7035 88.4365 77.6867 89.42 78.8993 89.42C80.1118 89.42 81.095 88.4365 81.095 87.2236V81.8999C81.095 78.2096 83.9061 75.3214 87.2704 75.3214H87.4538C90.8095 75.3214 93.5445 78.2589 93.5531 81.9374C93.5799 93.5811 93.5746 97.4795 93.5606 108.049Z" fill="black"/>
<path fill-rule="evenodd" clip-rule="evenodd" d="M49.8319 24.9896C48.9734 24.1309 48.9734 22.7385 49.8319 21.8797L62.2677 9.44015C63.1262 8.58138 64.5181 8.58138 65.3766 9.44016C66.2352 10.2989 66.2352 11.6913 65.3766 12.5501L52.9409 24.9896C52.0824 25.8484 50.6904 25.8484 49.8319 24.9896Z" fill="black"/>
<path fill-rule="evenodd" clip-rule="evenodd" d="M38.1964 21.9902C36.9823 21.9902 35.998 21.0057 35.998 19.7912L35.998 2.19897C35.998 0.984478 36.9823 -6.10782e-05 38.1964 -6.11313e-05C39.4105 -6.11844e-05 40.3948 0.984478 40.3948 2.19897L40.3948 19.7912C40.3948 21.0057 39.4105 21.9902 38.1964 21.9902Z" fill="black"/>
<path fill-rule="evenodd" clip-rule="evenodd" d="M10.2616 9.80125C9.40311 10.66 9.40311 12.0524 10.2616 12.9111L22.6974 25.3507C23.5559 26.2095 24.9478 26.2095 25.8063 25.3507C26.6648 24.492 26.6648 23.0996 25.8063 22.2408L13.3706 9.80125C12.5121 8.94248 11.1201 8.94248 10.2616 9.80125Z" fill="black"/>
<path fill-rule="evenodd" clip-rule="evenodd" d="M51.936 34.9096C51.936 33.6951 52.9203 32.7106 54.1344 32.7106H71.7212C72.9353 32.7106 73.9196 33.6951 73.9196 34.9096C73.9196 36.1241 72.9353 37.1086 71.7212 37.1086H54.1344C52.9203 37.1086 51.936 36.1241 51.936 34.9096Z" fill="black"/>
<path fill-rule="evenodd" clip-rule="evenodd" d="M0.549805 34.9096C0.549805 33.6951 1.53404 32.7106 2.74816 32.7106H20.335C21.5491 32.7106 22.5333 33.6951 22.5333 34.9096C22.5333 36.1241 21.5491 37.1086 20.335 37.1086H2.74816C1.53404 37.1086 0.549805 36.1241 0.549805 34.9096Z" fill="black"/>
</svg>
