<svg width="139" height="158" viewBox="0 0 139 158" fill="none" xmlns="http://www.w3.org/2000/svg">
<path d="M76.5566 146.832V142.57H80.8019V146.832H76.5566Z" fill="black" stroke="white"/>
<path d="M52.4528 104.737H51.9528V105.237V121.022V121.522H52.4528H68.1887H68.6887V121.022V105.237V104.737H68.1887H52.4528ZM49.8302 125.784C48.6653 125.784 47.7075 124.826 47.7075 123.653V102.606C47.7075 101.434 48.6653 100.475 49.8302 100.475H70.8113C71.9761 100.475 72.9339 101.434 72.9339 102.606V123.653C72.9339 124.826 71.9761 125.784 70.8113 125.784H49.8302Z" fill="black" stroke="white"/>
<path d="M68.1887 89.9513H68.6887V89.4513V79.4276H72.9339V92.0822C72.9339 93.2546 71.9761 94.2131 70.8113 94.2131H49.8302C48.6653 94.2131 47.7075 93.2546 47.7075 92.0822V89.9513H68.1887Z" fill="black" stroke="white"/>
<path d="M97.5377 73.1658V68.9039H109.651V73.1658H97.5377Z" fill="black" stroke="white"/>
<path d="M87.0471 62.6421V58.3802H109.651V62.6421H87.0471Z" fill="black" stroke="white"/>
<path d="M97.5377 41.5947V37.3329H109.651V41.5947H97.5377Z" fill="black" stroke="white"/>
<path d="M87.0471 52.1184V47.8566H96.5377V52.1184H87.0471Z" fill="black" stroke="white"/>
<path d="M102.283 153.488C98.7153 148.682 96.9304 143.031 96.9045 137.308H96.9067V136.808L96.4067 136.801C96.4067 136.803 96.4067 136.806 96.4066 136.808H42.4623H41.9623V137.308V144.701C41.9623 149.042 45.5029 152.593 49.8302 152.593H96.5378L102.283 153.488ZM102.283 153.488V157.355V153.488ZM120.142 72.7186V72.8987L120.256 73.0374L131.534 86.6655L131.534 86.6656L131.542 86.6752C135.999 91.7928 138.5 98.4638 138.5 105.342V157.355H134.255V105.395C134.255 99.5414 132.141 93.8753 128.287 89.4695L121.027 80.6617L120.142 79.587V80.9797V106.789V106.995L120.286 107.141L124.395 111.287L121.402 114.289L94.2185 87.0198C91.4267 84.2192 86.8868 84.2192 84.095 87.0198C81.3041 89.8196 81.3041 94.3711 84.095 97.1708L106.387 119.534C107.064 120.213 107.195 121.256 106.726 122.091C106.726 122.092 106.726 122.092 106.725 122.093L104.576 125.879C99.964 134.002 100.742 143.958 106.56 151.273L106.565 151.279C106.858 151.636 107.028 152.103 107.028 152.593V157.355H102.783V153.488V153.323L102.685 153.19C99.0802 148.334 97.3294 142.602 97.4066 136.814L97.4134 136.308H96.9067H41.9623H41.4623V136.808V144.701C41.4623 149.316 45.2253 153.093 49.8302 153.093H96.5378V157.355H49.8302C42.8694 157.355 37.217 151.687 37.217 144.701V84.6894H41.4623V131.572V132.072H41.9623H97.4574H97.8652L97.9472 131.673C98.3067 129.921 98.8726 128.191 99.5953 126.508L99.8948 125.81H99.1359H79.1793V121.549H101.208H102.412L101.562 120.696L96.3166 115.434L96.1701 115.287H95.9625H79.1793V111.025H90.7172H91.9217L91.0713 110.172L85.8261 104.91L85.6795 104.763H85.4719H79.1793V100.501H80.3316H81.4416L80.706 99.6699C76.734 95.181 76.8628 88.2985 81.1315 84.0162L81.1325 84.0152C85.5522 79.5564 92.7872 79.5549 97.2344 84.0162L115.042 101.88L115.896 102.737V101.527V31.571V31.071H115.396H87.0472V26.8092H115.396H115.896V26.3092V23.6783C115.896 19.0626 112.133 15.2855 107.528 15.2855H87.0472V11.0237H107.528C114.489 11.0237 120.142 16.6916 120.142 23.6783V72.7186ZM98.9263 126.81C98.2914 128.363 97.7889 129.957 97.4574 131.572L79.1793 126.31H98.5925C98.6203 126.245 98.6483 126.179 98.6765 126.113L99.1359 126.31V126.81H98.9263ZM100.502 121.049L100.854 121.402L101.208 121.049V120.549H100.709L95.9625 115.787H79.1793L100.502 121.049ZM90.0112 110.525L90.3631 110.878L90.7172 110.525V110.025H90.2188L85.4719 105.263H79.1793L90.0112 110.525ZM79.674 100.001C79.7662 100.113 79.8605 100.223 79.9571 100.333L80.3316 100.001V99.5012H79.9127C76.2023 94.8194 76.4748 87.9795 80.7774 83.6632L79.674 100.001Z" fill="black" stroke="white"/>
<path d="M33.6558 73.2289L33.5423 73.1657H33.4125H10.4906C4.97215 73.1657 0.5 68.6817 0.5 63.1421V10.5237C0.5 4.984 4.97216 0.5 10.4906 0.5H70.8113C76.3297 0.5 80.8019 4.984 80.8019 10.5237V63.1421C80.8019 68.6817 76.3297 73.1657 70.8113 73.1657H56.3343H55.5971L55.8698 73.8507L59.6703 83.395C59.6707 83.396 59.6711 83.397 59.6715 83.398C59.9916 84.2367 59.7735 85.195 59.0992 85.7868L59.0951 85.7905C58.6936 86.1509 58.2112 86.3203 57.6981 86.3203C57.3382 86.3203 57.0032 86.2372 56.6587 86.0429L56.6563 86.0415L33.6558 73.2289ZM50.6854 69.8486L50.6854 69.8487L50.6902 69.8417C51.0945 69.2439 51.7516 68.9039 52.4528 68.9039H70.8113C73.9739 68.9039 76.5566 66.3107 76.5566 63.1421V10.5237C76.5566 7.35501 73.9739 4.76184 70.8113 4.76184H10.4906C7.32803 4.76184 4.74528 7.35501 4.74528 10.5237V63.1421C4.74528 66.3107 7.32803 68.9039 10.4906 68.9039H34.0943C34.4622 68.9039 34.8164 68.9906 35.1216 69.1743L35.1288 69.1787L35.1362 69.1828L52.2883 78.733L53.5195 79.4186L52.9957 78.1103L50.4803 71.8283C50.4799 71.8274 50.4795 71.8264 50.4792 71.8255C50.22 71.1512 50.2922 70.4091 50.6854 69.8486Z" fill="black" stroke="white"/>
<path d="M17.9833 45.3041C19.3521 46.1903 20.9575 46.4801 22.5335 46.1079L27.931 44.9514L28.4189 44.8469L28.3153 44.3587L27.4499 40.2808L27.4497 40.2799L26.0072 33.5447L25.9025 33.0558L25.4135 33.1605L20.0109 34.3181L20.0087 34.3186C18.4344 34.6632 17.0921 35.6109 16.2098 36.9528L16.2097 36.9528L16.2071 36.9568C15.3229 38.3302 15.0365 39.9365 15.3507 41.4838L15.3507 41.4838L15.3522 41.4906C15.6943 43.0638 16.6362 44.4413 17.9833 45.3041ZM17.9833 45.3041C17.9828 45.3038 17.9822 45.3034 17.9817 45.3031L18.2536 44.8834M17.9833 45.3041C17.9835 45.3042 17.9837 45.3044 17.984 45.3045L18.2536 44.8834M18.2536 44.8834C17.0209 44.0942 16.1555 42.8313 15.8407 41.3843L22.4236 45.6201C20.9811 45.9621 19.5124 45.699 18.2536 44.8834ZM19.4783 50.7053L19.415 50.3882L19.0999 50.3157C17.8899 50.0375 16.7393 49.5846 15.6936 48.9104C13.3897 47.4027 11.792 45.0955 11.2426 42.4152L11.2427 42.4152L11.2417 42.4109C10.6661 39.7245 11.1663 36.9649 12.6428 34.6554C14.1188 32.3466 16.4182 30.7424 19.0932 30.1655C19.0933 30.1655 19.0933 30.1655 19.0933 30.1655L26.5415 28.5607L26.6396 28.5395L26.7219 28.4822L51.2393 11.4105C51.24 11.4101 51.2406 11.4096 51.2413 11.4092C51.8408 11.002 52.5851 10.9187 53.2422 11.1739C53.8962 11.4279 54.3848 12.0007 54.5338 12.7055L54.534 12.7065L62.4019 49.5394L62.4031 49.5447C62.5498 50.1965 62.3622 50.8988 61.8924 51.4129L61.8902 51.4153C61.4858 51.8637 60.9122 52.1184 60.3207 52.1184C60.2065 52.1184 60.1631 52.116 60.1277 52.1071L60.0967 52.0993L60.065 52.0955L34.3631 49.0437L33.661 48.9603L33.8164 49.65L36.1505 60.0158L36.1513 60.0193C36.3004 60.6605 36.1517 61.3204 35.7475 61.8325C35.343 62.3451 34.7264 62.642 34.0943 62.642H23.6038C22.5809 62.642 21.7129 61.9135 21.5239 60.9658L19.4783 50.7053ZM25.264 57.978L25.3442 58.3802H25.7543H30.816H31.4417L31.3037 57.7699L29.4416 49.5351L29.3325 49.0524L28.8487 49.1566L24.2066 50.1564L23.7253 50.26L23.8215 50.7429L25.264 57.978ZM51.2109 17.4702L51.0539 16.7342L50.4363 17.1641L30.137 31.2922L29.8637 31.4824L29.9338 31.8078L32.6089 44.2258L32.6841 44.5748L33.0387 44.617L56.9309 47.4584L57.6247 47.5409L57.479 46.8576L51.2109 17.4702Z" fill="black" stroke="white"/>
<path d="M66.066 31.071V26.8092H70.3113V31.071H66.066Z" fill="black" stroke="white"/>
<path d="M64.3362 20.0972L62.4361 16.286L66.7966 14.0984L68.6967 17.9096L64.3362 20.0972Z" fill="black" stroke="white"/>
<path d="M66.066 44.2256V39.9637H70.3113V44.2256H66.066Z" fill="black" stroke="white"/>
</svg>
