<svg width="152" height="152" viewBox="0 0 152 152" fill="none" xmlns="http://www.w3.org/2000/svg">
<path d="M46.0043 151.001C57.0888 150.996 67.7778 146.881 76.0023 139.453C89.8296 151.874 109.882 154.504 126.45 146.071C143.017 137.637 152.68 119.881 150.758 101.399C148.837 82.9151 135.73 67.523 117.782 62.6725C125.294 43.8999 119.348 22.4251 103.248 10.1817C87.1491 -2.06055 64.8544 -2.06055 48.7556 10.1817C32.6567 22.4251 26.7099 43.8999 34.2228 62.6725C12.4542 68.5612 -1.58177 89.6541 1.39777 111.995C4.37732 134.336 23.4532 151.015 46.0043 151.001ZM66.003 106.028C65.9969 100.679 67.071 95.3842 69.162 90.4605C73.6893 91.2291 78.3142 91.2291 82.8415 90.4605C88.8323 104.583 86.1714 120.89 76.0023 132.379C69.5623 125.111 66.0054 115.738 66.003 106.028ZM80.432 85.7906C77.4891 86.137 74.5156 86.137 71.5727 85.7906C72.8531 83.6178 74.3362 81.5707 76.0023 79.6762C77.6673 81.5707 79.1503 83.6178 80.432 85.7906ZM79.5324 76.1493C87.9462 68.5978 99.1954 65.0123 110.43 66.3031C104.981 75.532 96.0609 82.1941 85.6611 84.8036C83.9669 81.6842 81.9089 78.7758 79.5324 76.1395V76.1493ZM66.3423 84.8231C55.9402 82.21 47.0186 75.5393 41.5746 66.3031C52.8056 65.0075 64.0549 68.5844 72.4723 76.1285C70.0933 78.7722 68.0365 81.6879 66.3423 84.8134V84.8231ZM145.998 106.028C146.025 121.757 136.804 136.035 122.452 142.49C108.099 148.945 91.2919 146.371 79.5324 135.917C90.9318 123.26 94.1323 105.223 87.7814 89.4211C99.7154 86.1675 109.792 78.1634 115.657 67.279C133.46 71.7209 145.962 87.6888 145.998 106.028ZM76.0023 6.08994C89.4121 6.08994 101.93 12.807 109.339 23.9781C116.747 35.1492 118.063 49.2884 112.84 61.6331C99.5274 59.4543 85.9504 63.4984 76.0023 72.6041C66.0543 63.4984 52.4772 59.4543 39.1639 61.6331C33.9421 49.2884 35.2567 35.1492 42.6659 23.9781C50.0751 12.807 62.5926 6.08994 76.0023 6.08994ZM36.3443 67.279C42.2106 78.1634 52.2868 86.1675 64.2209 89.4211C57.8687 105.223 61.0692 123.26 72.4699 135.917C60.0524 146.921 42.1215 149.108 27.4215 141.411C12.7203 133.714 4.3114 117.736 6.2937 101.268C8.27599 84.7999 20.2369 71.2719 36.3443 67.279Z" fill="black" stroke="white" stroke-width="1.5"/>
</svg>
