<?xml version="1.0" encoding="utf-8"?>
<svg version="1.1" id="Layer_1" xmlns="http://www.w3.org/2000/svg" xmlns:xlink="http://www.w3.org/1999/xlink" x="0px" y="0px"
	 viewBox="0 0 200 48" style="enable-background:new 0 0 200 48;" xml:space="preserve">
<style type="text/css">
	.st0{fill:#B72327;}
</style>
<path class="st0" d="M143.3,18.7v-1.3c0-2,0-3.9-0.7-4.6c-0.7-0.7-1.3-1.3-2-1.3c-0.7,0-1.3,0-2,0.7c-0.7,0-0.7,0.7-0.7,2
	s0,2,0.7,2.6c0,0.7,0.7,1.3,1.3,1.3l4.6,4.6c0.7,0.7,1.3,1.3,2,2c0.7,0.7,1.3,1.3,1.3,2c0.7,0.7,0.7,2,0.7,2.6c0,1.3,0,2,0,3.3
	c0,3.3-0.7,5.9-2,7.2c-1.3,2-3.3,2.6-5.9,2.6s-4.6-1.3-5.9-3.3c-1.3-2-2-5.3-2-8.5v-1.3h4.6v2.6c0,1.3,0,2.6,0,3.3
	c0.7,0,0.7,0.7,0.7,1.3s0.7,0.7,1.3,1.3c0.7,0,0.7,0,1.3,0c0.7,0,1.3-0.7,2-1.3c0.7-0.7,0.7-2,0.7-2.6c0-1.3,0-2-0.7-3.3
	c-0.7-0.7-1.3-2.6-2.6-3.3l-3.9-3.3c-2.6-2-3.9-5.3-3.9-9.2c0-1.3,0-2.6,0.7-3.9s0.7-2,1.3-2.6c1.3-1.3,2.6-2,3.3-2
	c0.7-0.7,2-0.7,3.3-0.7c6.6,0,7.2,5.9,7.2,11.2v2C147.9,18.7,143.3,18.7,143.3,18.7z M111.2,5.6h5.9h6.6v5.9h-6.6V24h4.6v4.6h-4.6
	v15.1h-5.9V27.9V24V10.9V5.6z M124.9,5.6h5.9V43h-5.9V5.6z M149.9,5.6h5.9v17.7h4.6V5.6h5.9V43h-5.9V27.9h-4.6V43h-5.9V27.9V24V5.6z
	 M67.2,5.6h5.9v30.9c0,1.3,0.7,2,2,2l0,0c1.3,0,2-0.7,2-2V5.6h5.9v30.9c0,3.9-3.3,7.2-7.2,7.2h-1.3c-3.9,0-7.2-3.3-7.2-7.2
	C67.2,36.5,67.2,5.6,67.2,5.6z M48.8,5.6h5.3v13.1l5.3-13.1h5.3L57.3,22l7.2,21h-5.3l-5.3-18.4v17.7h-5.3V5.6z M17.9,39.1h2
	c0.7,0,1.3-0.7,1.3-1.3c0.7-0.7,0.7-5.3,0.7-7.2c0-2,0-2.6-0.7-3.9c0-0.7-0.7-1.3-1.3-1.3h-2V39.1z M18.6,10.2l-0.7,1.3v9.8h2
	c0.7,0,1.3-0.7,1.3-1.3c0.7-0.7,0.7-4.6,0.7-5.9c0-1.3,0-2.6-0.7-3.3c0-0.7-0.7-1.3-1.3-1.3h-1.3V10.2z M178.1,28.6l-2-17.7
	l-1.3,17.7C174.8,28.6,178.1,28.6,178.1,28.6z M101.3,28.6l-2-17.7L98,28.6C98,28.6,101.3,28.6,101.3,28.6z M97.4,5.6h5.3l5.9,37.4
	h-5.3L102,32.5h-4.6L96.1,43h-5.3L97.4,5.6z M39.6,28.6l-2-17.7l-1.3,17.7H39.6z M35,5.6h5.3L46.2,43h-4.6l-1.3-10.5h-4.6L34.4,43
	h-4.6L35,5.6z M4.2,47h175.9l1.3-3.9h-1.3l-1.3-10.5h-4.6L172.9,43h-5.3l5.3-37.4h5.3l4.6,30.2L195.8,1h-174l-2,4.6
	c3.3,0.7,5.9,2.6,6.6,6.6c0,2,0,4.6,0,5.9c0,0.7-0.7,1.3-0.7,2c0,0.7-0.7,1.3-1.3,2c-0.7,0.7-1.3,1.3-2,1.3c0.7,0,2,0.7,2.6,1.3
	c1.3,1.3,2,3.3,2,5.9c0.7,3.9,0,9.2-2.6,11.8C23.2,43,21.9,43,19.3,43h-6.6V24.7L4.2,47z"/>
</svg>
