<?xml version="1.0" encoding="utf-8"?>
<!-- Generator: Adobe Illustrator 23.0.1, SVG Export Plug-In . SVG Version: 6.00 Build 0)  -->
<svg version="1.1" id="Layer_1" xmlns="http://www.w3.org/2000/svg" xmlns:xlink="http://www.w3.org/1999/xlink" x="0px" y="0px"
	 viewBox="0 0 534.5 100.3" style="enable-background:new 0 0 534.5 100.3;" xml:space="preserve">
<style type="text/css">
	.st0{fill-rule:evenodd;clip-rule:evenodd;fill:#DFC789;}
	.st1{fill-rule:evenodd;clip-rule:evenodd;fill:#DDC78A;}
</style>
<g>
	<path class="st0" d="M0,51.3c0-26,20.3-45.5,47-45.5v11.1c-20.9,0-35.9,14.9-35.9,34.4C11.1,71,26.5,85.6,47,85.6v11.1
		C20.1,96.8,0,76.9,0,51.3L0,51.3z"/>
	<path class="st0" d="M489,5.8c-25.2,0-45.5,20.4-45.5,45.5c0,20.9,14.1,38.6,33.5,43.9l-52.8-1.2V62.1H413V85
		c-17.7-2.4-30.6-16-30.6-34c0-19.5,15.2-34.4,36.2-34.4V5.5c-26.9,0-47.4,19.5-47.4,45.5c0,19.6,11.9,35.8,29.6,42.4l-49.1-1.1
		l-31-86.8l-30.5,85.4l-33.9-0.8v-4.5c-20.5,0-35.9-14.6-35.9-34.4c0-19.5,15-34.4,35.9-34.4V5.8c-26.7,0-47,19.5-47,45.5
		c0,16.2,8.1,30.2,20.9,38.2l-47-1.1V5.5h-11v82.6l-26.6-0.6v-84h-11.2v56.6h-33.6V3.5H89.6v82.8l-27-0.6v11h423
		c1.2,0.1,2.3,0.1,3.5,0.1c25.1,0,45.5-20.4,45.5-45.5C534.5,26.2,514.1,5.8,489,5.8z M134.4,87.3l-33.6-0.8V71.3h33.6V87.3z
		 M320.7,36.8l13,35.6h-26L320.7,36.8z M301.3,91.1l2.8-7.7H337l3.3,8.6L301.3,91.1z M489,85.6c-19,0-34.4-15.4-34.4-34.4
		c0-19,15.4-34.4,34.4-34.4c19,0,34.4,15.4,34.4,34.4C523.4,70.2,508,85.6,489,85.6z"/>
	<path class="st1" d="M467.5,50.1c0-3.7,3-6.5,7-6.5v1.6c-3.1,0-5.3,2.1-5.3,4.9c0,2.8,2.3,4.9,5.3,4.9v1.6
		C470.5,56.6,467.5,53.8,467.5,50.1L467.5,50.1z"/>
	<polygon class="st1" points="478.5,43.6 480.2,43.6 480.2,55 486.5,55 486.5,56.6 478.5,56.6 	"/>
	<path class="st1" d="M489.5,52.5v-8.9h1.7v8.9c0,0.7,0.3,1.3,0.8,1.8c0.5,0.5,1.2,0.7,2,0.7s1.4-0.3,1.9-0.7
		c0.5-0.5,0.8-1.1,0.8-1.8v-8.9h1.7v8.9c0,2.3-2,4.1-4.5,4.1S489.5,54.8,489.5,52.5L489.5,52.5z"/>
	<path class="st1" d="M501.5,43.6h3.3c1.6,0,2.8,1.3,2.8,2.5c0,0.5-0.2,1.1-0.8,1.5c1.7,0.7,2.7,2.2,2.7,4.1c0,3-2.2,4.9-5.5,4.9
		h-2.5V43.6z M504.9,47.1c0.6,0,1.1-0.4,1.1-0.9c0-0.5-0.5-0.9-1.1-0.9h-1.6v1.9H504.9z M504,55c1.8,0,3.7-0.9,3.7-3.3
		c0-2.4-1.9-3-3.7-3h-0.8V55H504z"/>
</g>
</svg>
