<?xml version="1.0" encoding="UTF-8"?>
<svg width="211px" height="50px" viewBox="0 0 211 50" version="1.1" xmlns="http://www.w3.org/2000/svg" xmlns:xlink="http://www.w3.org/1999/xlink">
    <!-- Generator: Sketch 49.3 (51167) - http://www.bohemiancoding.com/sketch -->
    <title>Page 1</title>
    <desc>Created with Sketch.</desc>
    <defs>
        <polygon id="path-1" points="0 0.0513888889 24.9037252 0.0513888889 24.9037252 35.1875 0 35.1875"></polygon>
    </defs>
    <g id="Page-1" stroke="none" stroke-width="1" fill="none" fill-rule="evenodd">
        <g id="index" transform="translate(-407.000000, -42.000000)">
            <g id="Page-1" transform="translate(407.000000, 42.000000)">
                <path d="M163.187176,49.1992222 L164.087144,49.1992222 L164.087144,46.2947778 L165.090654,46.2947778 L166.778654,49.1992222 L167.904173,49.1992222 L166.019725,46.1925556 C167.023234,46.0808889 167.651197,45.2897778 167.651197,44.452 C167.651197,43.6236667 167.219123,42.6092222 165.522168,42.6092222 L163.187176,42.6092222 L163.187176,49.1992222 Z M164.087144,43.3908889 L165.269192,43.3908889 C165.981667,43.3908889 166.694701,43.5586667 166.694701,44.452 C166.694701,45.3453333 165.981667,45.5131111 165.269192,45.5131111 L164.087144,45.5131111 L164.087144,43.3908889 Z" id="Fill-1" fill="#323231"></path>
                <path d="M192.207512,42.6031111 L192.207512,46.7664444 C192.207512,48.287 193.31904,49.3347778 194.766936,49.3347778 C196.214833,49.3347778 197.32636,48.287 197.32636,46.7664444 L197.32636,42.6031111 L196.43031,42.6031111 L196.43031,46.6275556 C196.43031,47.4436667 196.019504,48.5003333 194.766936,48.5003333 C193.515488,48.5003333 193.104681,47.4436667 193.104681,46.6275556 L193.104681,42.6031111 L192.207512,42.6031111 Z" id="Fill-3" fill="#323231"></path>
                <path d="M151.41416,45.5490556 L151.41416,46.3835 L152.880526,46.3835 L152.880526,48.2101667 C152.479234,48.4323889 151.881494,48.5529444 151.25521,48.5529444 C149.797799,48.5529444 148.686271,47.4218333 148.686271,45.9385 C148.686271,44.5007222 149.667393,43.3235 151.180772,43.3235 C151.843995,43.3235 152.469719,43.5001667 153.011491,44.0190556 L153.64673,43.3418333 C153.132942,42.8135 152.395282,42.4890556 151.180772,42.4890556 C149.16312,42.4890556 147.733693,43.9907222 147.733693,45.9385 C147.733693,47.8023889 149.032154,49.3879444 151.274239,49.3879444 C152.077382,49.3879444 153.132942,49.1746111 153.777695,48.7851667 L153.777695,45.5490556 L151.41416,45.5490556 Z" id="Fill-5" fill="#323231"></path>
                <path d="M179.639803,49.2545556 C181.657456,49.2545556 183.086883,47.7528889 183.086883,45.8051111 C183.086883,43.8578889 181.657456,42.3556667 179.639803,42.3556667 C177.622151,42.3556667 176.192724,43.8578889 176.192724,45.8051111 C176.192724,47.7528889 177.622151,49.2545556 179.639803,49.2545556 M179.639803,48.4201111 C178.126424,48.4201111 177.145862,47.2423333 177.145862,45.8051111 C177.145862,44.3678889 178.126424,43.1906667 179.639803,43.1906667 C181.153182,43.1906667 182.134305,44.3678889 182.134305,45.8051111 C182.134305,47.2423333 181.153182,48.4201111 179.639803,48.4201111" id="Fill-7" fill="#323231"></path>
                <path d="M206.51986,49.2518333 L207.41703,49.2518333 L207.41703,46.3585 L208.845897,46.3585 C210.537255,46.3585 210.966531,45.3479444 210.966531,44.5223889 C210.966531,43.6973889 210.537255,42.6868333 208.845897,42.6868333 L206.51986,42.6868333 L206.51986,49.2518333 Z M207.41703,43.4657222 L208.59404,43.4657222 C209.304276,43.4657222 210.013953,43.6329444 210.013953,44.5223889 C210.013953,45.4129444 209.304276,45.5801667 208.59404,45.5801667 L207.41703,45.5801667 L207.41703,43.4657222 Z" id="Fill-9" fill="#323231"></path>
                <g id="Group-13" transform="translate(0.000000, 0.019778)">
                    <mask id="mask-2" fill="white">
                        <use xlink:href="#path-1"></use>
                    </mask>
                    <g id="Clip-12"></g>
                    <path d="M12.3526228,35.1875 C6.92427003,35.1875 0.821500796,32.0813889 0.205291247,26.3241667 L-0.00011193634,24.9163889 L2.97795438,24.5447222 L3.18391724,25.9530556 C3.64621432,30.3180556 8.84901538,32.2619444 12.397957,32.2619444 C15.6592223,32.2619444 18.8471692,30.9425 20.5178191,28.9008333 C21.7412833,27.4063889 22.1453735,25.6180556 21.7183363,23.5841667 C20.9683629,20.1425 17.745156,19.5780556 12.5272435,19.0586111 C7.38600743,18.5452778 0.98772626,17.9086111 0.479535279,10.6036111 C0.266856233,8.36916667 0.874110875,6.23638889 2.23917454,4.46583333 C4.39115066,1.70083333 8.21713475,0.0513888889 12.4757528,0.0513888889 C17.4076679,0.0513888889 22.847774,2.50138889 23.8831851,7.97361111 L24.0723576,9.43472222 L21.1575353,10.0263889 L20.9672435,8.50083333 C20.7187448,7.33694444 20.2463735,6.4075 19.4863257,5.57638889 C17.9695883,3.96694444 15.3306891,2.99805556 12.4382541,2.99805556 L12.2317316,2.99972222 C9.7321931,3.0375 6.42559363,3.9075 4.63237347,6.23916667 C3.69994377,7.38694444 3.29977135,8.77694444 3.42346101,10.3930556 C3.76598621,15.0036111 7.25000477,15.5775 12.9067077,16.1336111 C17.8302276,16.6180556 23.4108138,17.1663889 24.6661798,22.9797222 C25.2874265,25.8369444 24.6846493,28.4941667 22.9222117,30.6641667 C20.6538218,33.4547222 16.603965,35.1875 12.3526228,35.1875" id="Fill-11" fill="#FCB32A" mask="url(#mask-2)"></path>
                </g>
                <polygon id="Fill-14" fill="#FCB32A" points="65.7850427 34.885 62.8355202 34.885 62.8355202 0.505555556 82.5564645 0.505555556 82.5564645 3.43388889 65.7850427 3.43388889 65.7850427 18.2827778 82.2139393 18.2827778 82.2139393 21.255 65.7850427 21.255"></polygon>
                <polygon id="Fill-16" fill="#FCB32A" points="93.0796557 34.885 90.1318122 34.885 90.1318122 0.505555556 109.849398 0.505555556 109.849398 3.43388889 93.0796557 3.43388889 93.0796557 18.2827778 109.507433 18.2827778 109.507433 21.255 93.0796557 21.255"></polygon>
                <path d="M141.653031,34.885 L137.22315,34.885 L121.612508,20.8827778 L121.612508,18.5777778 L129.040044,18.5777778 C134.471755,18.5777778 136.944989,14.6527778 136.944989,11.0066667 C136.944989,7.35888889 134.471755,3.43388889 129.040044,3.43388889 L119.654182,3.43388889 L119.654182,34.885 L116.70354,34.885 L116.70354,0.460555556 L129.040044,0.460555556 C136.167591,0.460555556 139.89675,5.75444444 139.89675,10.9827778 C139.89675,16.2111111 136.167591,21.5038889 129.040044,21.5038889 L126.736394,21.5038889 L141.653031,34.885 Z" id="Fill-18" fill="#FCB32A"></path>
                <path d="M162.12462,35.3472222 C157.429451,35.3472222 152.879238,33.4466667 149.64092,30.1333333 C146.301859,26.7638889 144.459947,22.3366667 144.459947,17.6727778 C144.459947,13.0077778 146.301859,8.58055556 149.646517,5.20777778 C152.879238,1.90055556 157.428891,0 162.12462,0 C166.870721,0 171.317952,1.84944444 174.646939,5.20777778 C177.992716,8.58222222 179.835748,13.0088889 179.835748,17.6727778 C179.835748,22.3361111 177.992716,26.7633333 174.646939,30.1377778 C171.317952,33.4972222 166.870721,35.3472222 162.12462,35.3472222 M162.12462,2.97277778 C158.228116,2.97277778 154.548769,4.52 151.763233,7.33055556 C148.984414,10.1338889 147.453684,13.8072222 147.453684,17.6727778 C147.453684,21.5394444 148.984414,25.2127778 151.763233,28.0144444 C154.548769,30.8272222 158.228116,32.3744444 162.12462,32.3744444 C166.047989,32.3744444 169.743008,30.8272222 172.530782,28.0144444 C175.279939,25.2422222 176.793878,21.5683333 176.793878,17.6727778 C176.793878,13.7783333 175.279939,10.1038889 172.530782,7.33 C169.743008,4.52 166.047989,2.97277778 162.12462,2.97277778" id="Fill-20" fill="#FCB32A"></path>
                <polygon id="Fill-22" fill="#FCB32A" points="208.004863 34.885 188.320298 6.635 188.320298 34.885 185.327121 34.885 185.327121 0.327777778 187.57928 0.31 207.515702 28.8972222 207.515702 0.460555556 210.465784 0.460555556 210.465784 34.885"></polygon>
                <path d="M54.1700244,34.9262222 L51.125356,34.9262222 L51.1208785,21.2501111 L39.5931146,21.2501111 L29.5356345,34.9262222 L25.7342764,34.9262222 L51.6620907,0.0406666667 L54.1437194,0.0406666667 L54.1700244,34.9262222 Z M51.1443851,5.56733333 L41.78147,18.2962222 L51.1343109,18.2928889 L51.1443851,5.56733333 Z" id="Fill-24" fill="#FCB32A"></path>
                <path d="M1.48802573,49.2176667 L2.3879939,49.2176667 L2.3879939,46.3132222 L3.39150318,46.3132222 L5.07950318,49.2176667 L6.20502308,49.2176667 L4.32001512,46.211 C5.3235244,46.0998889 5.95204695,45.3082222 5.95204695,44.4704444 C5.95204695,43.6421111 5.52053236,42.6276667 3.82301777,42.6276667 L1.48802573,42.6276667 L1.48802573,49.2176667 Z M2.3879939,43.4093333 L3.57004164,43.4093333 C4.28251645,43.4093333 4.99555093,43.5771111 4.99555093,44.4704444 C4.99555093,45.3637778 4.28251645,45.5315556 3.57004164,45.5315556 L2.3879939,45.5315556 L2.3879939,43.4093333 Z" id="Fill-26" fill="#323231"></path>
                <path d="M82.8788411,49.2968889 L83.7788093,49.2968889 L83.7788093,46.3924444 L84.7823186,46.3924444 L86.4703186,49.2968889 L87.5958385,49.2968889 L85.7108305,46.2902222 C86.7143398,46.1791111 87.3423027,45.3874444 87.3423027,44.5496667 C87.3423027,43.7213333 86.9113477,42.7068889 85.2138332,42.7068889 L82.8788411,42.7068889 L82.8788411,49.2968889 Z M83.7788093,43.4885556 L84.960857,43.4885556 C85.6733318,43.4885556 86.3858066,43.6563333 86.3858066,44.5496667 C86.3858066,45.443 85.6733318,45.6107778 84.960857,45.6107778 L83.7788093,45.6107778 L83.7788093,43.4885556 Z" id="Fill-28" fill="#323231"></path>
                <polygon id="Fill-30" fill="#323231" points="15.1073202 49.2751667 19.5786172 49.2751667 19.5786172 48.4340556 16.0106464 48.4340556 16.0106464 46.3129444 19.1739674 46.3129444 19.1739674 45.4718333 16.0106464 45.4718333 16.0106464 43.5001667 19.4095934 43.5001667 19.4095934 42.6596111 15.1073202 42.6596111"></polygon>
                <path d="M28.1254045,48.4755 C28.5703515,49.0921667 29.3774125,49.3777222 30.2219721,49.3777222 C31.482935,49.3777222 32.5032347,48.6227222 32.5032347,47.3610556 C32.5032347,45.0138333 29.2665955,45.9988333 29.2665955,44.3505 C29.2665955,43.9460556 29.5632268,43.3560556 30.5460279,43.3560556 C31.0564576,43.3560556 31.4924496,43.5866111 31.7152029,43.9271667 L32.4383117,43.2738333 C31.9469111,42.6755 31.2607414,42.5277222 30.5460279,42.5277222 C28.9694045,42.5277222 28.3201737,43.5866111 28.3201737,44.3505 C28.3201737,46.8916111 31.5573727,45.9621667 31.5573727,47.4627222 C31.5573727,48.1810556 30.8337042,48.5493889 30.2493966,48.5493889 C29.721057,48.5493889 29.1736883,48.3277222 28.8585875,47.8493889 L28.1254045,48.4755 Z" id="Fill-32" fill="#323231"></path>
                <polygon id="Fill-34" fill="#323231" points="43.0578241 49.2166111 43.9549939 49.2166111 43.9549939 43.4866111 46.0845828 43.4866111 46.0845828 42.6521667 40.9282353 42.6521667 40.9282353 43.4866111 43.0578241 43.4866111"></polygon>
                <polygon id="Fill-36" fill="#323231" points="127.418367 49.3033889 128.315536 49.3033889 128.315536 43.5733889 130.444566 43.5733889 130.444566 42.7389444 125.288218 42.7389444 125.288218 43.5733889 127.418367 43.5733889"></polygon>
                <path d="M53.2266249,49.1661111 L54.27267,49.1661111 L54.9269379,47.5433333 L58.0745878,47.5433333 L58.7378106,49.1661111 L59.7844154,49.1661111 L56.954105,42.6011111 L56.1414472,42.6011111 L53.2266249,49.1661111 Z M55.2442775,46.7644444 L56.4962854,43.7511111 L56.5147549,43.7511111 L57.7477337,46.7644444 L55.2442775,46.7644444 Z" id="Fill-38" fill="#323231"></path>
                <path d="M95.6282782,49.3251111 L96.674883,49.3251111 L97.3285912,47.7023333 L100.476801,47.7023333 L101.140024,49.3251111 L102.186069,49.3251111 L99.3557584,42.7601111 L98.5431005,42.7601111 L95.6282782,49.3251111 Z M97.6459308,46.9234444 L98.8979387,43.9095556 L98.9164082,43.9095556 L100.149947,46.9234444 L97.6459308,46.9234444 Z" id="Fill-40" fill="#323231"></path>
                <path d="M68.5372775,42.7322222 L68.5372775,46.8955556 C68.5372775,48.4161111 69.6488053,49.4638889 71.0967019,49.4638889 C72.5445984,49.4638889 73.6561263,48.4161111 73.6561263,46.8955556 L73.6561263,42.7322222 L72.7595162,42.7322222 L72.7595162,46.7566667 C72.7595162,47.5727778 72.3487098,48.6294444 71.0967019,48.6294444 C69.8452536,48.6294444 69.4338875,47.5727778 69.4338875,46.7566667 L69.4338875,42.7322222 L68.5372775,42.7322222 Z" id="Fill-42" fill="#323231"></path>
                <polygon id="Fill-44" fill="#323231" points="110.705767 49.2301667 111.602937 49.2301667 111.602937 43.8335 111.621407 43.8335 115.301314 49.2301667 116.441945 49.2301667 116.441945 42.6651667 115.544775 42.6651667 115.544775 48.0618333 115.526306 48.0618333 111.882778 42.6651667 110.705767 42.6651667"></polygon>
            </g>
        </g>
    </g>
</svg>